<svg xmlns="http://www.w3.org/2000/svg" xmlns:xlink="http://www.w3.org/1999/xlink" width="500" zoomAndPan="magnify" viewBox="0 0 375 374.999991" height="500" preserveAspectRatio="xMidYMid meet" version="1.0"><defs><g/><clipPath id="fdb9574eb2"><path d="M 1.882812 1.882812 L 373.132812 1.882812 L 373.132812 373.132812 L 1.882812 373.132812 Z M 1.882812 1.882812 " clip-rule="nonzero"/></clipPath><clipPath id="bd7c65bb4a"><path d="M 101 94 L 266 94 L 266 197.839844 L 101 197.839844 Z M 101 94 " clip-rule="nonzero"/></clipPath></defs><g clip-path="url(#fdb9574eb2)"><path fill="#ffffff" d="M 373.132812 187.507812 C 373.132812 190.546875 373.058594 193.582031 372.910156 196.617188 C 372.761719 199.648438 372.535156 202.679688 372.238281 205.703125 C 371.941406 208.726562 371.570312 211.738281 371.125 214.746094 C 370.675781 217.75 370.160156 220.742188 369.566406 223.722656 C 368.972656 226.699219 368.308594 229.664062 367.570312 232.609375 C 366.832031 235.558594 366.019531 238.484375 365.140625 241.390625 C 364.257812 244.296875 363.304688 247.183594 362.28125 250.042969 C 361.257812 252.902344 360.164062 255.738281 359.003906 258.542969 C 357.839844 261.351562 356.609375 264.125 355.308594 266.871094 C 354.011719 269.617188 352.644531 272.332031 351.214844 275.011719 C 349.78125 277.691406 348.285156 280.332031 346.722656 282.9375 C 345.160156 285.542969 343.535156 288.109375 341.847656 290.636719 C 340.160156 293.160156 338.414062 295.644531 336.601562 298.085938 C 334.792969 300.523438 332.925781 302.917969 330.996094 305.265625 C 329.070312 307.613281 327.085938 309.914062 325.046875 312.164062 C 323.007812 314.417969 320.914062 316.617188 318.765625 318.765625 C 316.617188 320.914062 314.417969 323.007812 312.164062 325.046875 C 309.914062 327.085938 307.613281 329.070312 305.265625 330.996094 C 302.917969 332.925781 300.523438 334.792969 298.085938 336.601562 C 295.644531 338.414062 293.160156 340.160156 290.636719 341.847656 C 288.109375 343.535156 285.542969 345.160156 282.9375 346.722656 C 280.332031 348.285156 277.691406 349.78125 275.011719 351.214844 C 272.332031 352.644531 269.617188 354.011719 266.871094 355.308594 C 264.125 356.609375 261.351562 357.839844 258.542969 359.003906 C 255.738281 360.164062 252.902344 361.257812 250.042969 362.28125 C 247.183594 363.304688 244.296875 364.257812 241.390625 365.140625 C 238.484375 366.019531 235.558594 366.832031 232.609375 367.570312 C 229.664062 368.308594 226.699219 368.972656 223.722656 369.566406 C 220.742188 370.160156 217.75 370.675781 214.746094 371.125 C 211.738281 371.570312 208.726562 371.941406 205.703125 372.238281 C 202.679688 372.535156 199.648438 372.761719 196.617188 372.910156 C 193.582031 373.058594 190.546875 373.132812 187.507812 373.132812 C 184.46875 373.132812 181.433594 373.058594 178.398438 372.910156 C 175.363281 372.761719 172.335938 372.535156 169.3125 372.238281 C 166.289062 371.941406 163.277344 371.570312 160.269531 371.125 C 157.265625 370.675781 154.273438 370.160156 151.292969 369.566406 C 148.3125 368.972656 145.351562 368.308594 142.402344 367.570312 C 139.457031 366.832031 136.53125 366.019531 133.625 365.140625 C 130.714844 364.257812 127.832031 363.304688 124.972656 362.28125 C 122.113281 361.257812 119.277344 360.164062 116.472656 359.003906 C 113.664062 357.839844 110.890625 356.609375 108.140625 355.308594 C 105.394531 354.011719 102.683594 352.644531 100.003906 351.214844 C 97.324219 349.78125 94.683594 348.285156 92.078125 346.722656 C 89.472656 345.160156 86.90625 343.535156 84.378906 341.847656 C 81.855469 340.160156 79.371094 338.414062 76.929688 336.601562 C 74.492188 334.792969 72.097656 332.925781 69.75 330.996094 C 67.398438 329.070312 65.101562 327.085938 62.847656 325.046875 C 60.597656 323.007812 58.398438 320.914062 56.25 318.765625 C 54.101562 316.617188 52.007812 314.417969 49.96875 312.164062 C 47.929688 309.914062 45.945312 307.613281 44.015625 305.265625 C 42.089844 302.917969 40.222656 300.523438 38.414062 298.085938 C 36.601562 295.644531 34.855469 293.160156 33.164062 290.636719 C 31.476562 288.109375 29.851562 285.542969 28.292969 282.9375 C 26.730469 280.332031 25.234375 277.691406 23.800781 275.011719 C 22.367188 272.332031 21.003906 269.617188 19.703125 266.871094 C 18.40625 264.125 17.175781 261.351562 16.011719 258.542969 C 14.851562 255.738281 13.757812 252.902344 12.734375 250.042969 C 11.710938 247.183594 10.757812 244.296875 9.875 241.390625 C 8.992188 238.484375 8.183594 235.558594 7.445312 232.609375 C 6.707031 229.664062 6.042969 226.699219 5.449219 223.722656 C 4.855469 220.742188 4.335938 217.75 3.890625 214.746094 C 3.445312 211.738281 3.074219 208.726562 2.777344 205.703125 C 2.480469 202.679688 2.253906 199.648438 2.105469 196.617188 C 1.957031 193.582031 1.882812 190.546875 1.882812 187.507812 C 1.882812 184.46875 1.957031 181.433594 2.105469 178.398438 C 2.253906 175.363281 2.480469 172.335938 2.777344 169.3125 C 3.074219 166.289062 3.445312 163.277344 3.890625 160.269531 C 4.335938 157.265625 4.855469 154.273438 5.449219 151.292969 C 6.042969 148.3125 6.707031 145.351562 7.445312 142.40625 C 8.183594 139.457031 8.992188 136.53125 9.875 133.625 C 10.757812 130.714844 11.710938 127.832031 12.734375 124.972656 C 13.757812 122.113281 14.851562 119.277344 16.011719 116.472656 C 17.175781 113.664062 18.40625 110.890625 19.703125 108.144531 C 21.003906 105.394531 22.367188 102.683594 23.800781 100.003906 C 25.234375 97.324219 26.730469 94.683594 28.292969 92.078125 C 29.851562 89.472656 31.476562 86.90625 33.164062 84.378906 C 34.855469 81.855469 36.601562 79.371094 38.414062 76.929688 C 40.222656 74.492188 42.089844 72.097656 44.015625 69.75 C 45.945312 67.398438 47.929688 65.101562 49.96875 62.847656 C 52.007812 60.597656 54.101562 58.398438 56.25 56.25 C 58.398438 54.101562 60.597656 52.007812 62.847656 49.96875 C 65.101562 47.929688 67.398438 45.945312 69.75 44.015625 C 72.097656 42.089844 74.492188 40.222656 76.929688 38.414062 C 79.371094 36.601562 81.855469 34.855469 84.378906 33.164062 C 86.90625 31.476562 89.472656 29.851562 92.078125 28.292969 C 94.683594 26.730469 97.324219 25.234375 100.003906 23.800781 C 102.683594 22.367188 105.394531 21.003906 108.140625 19.703125 C 110.890625 18.40625 113.664062 17.175781 116.472656 16.011719 C 119.277344 14.851562 122.113281 13.757812 124.972656 12.734375 C 127.832031 11.710938 130.714844 10.757812 133.625 9.875 C 136.53125 8.992188 139.457031 8.183594 142.402344 7.445312 C 145.351562 6.707031 148.3125 6.042969 151.292969 5.449219 C 154.273438 4.855469 157.265625 4.335938 160.269531 3.890625 C 163.277344 3.445312 166.289062 3.074219 169.3125 2.777344 C 172.335938 2.480469 175.363281 2.253906 178.398438 2.105469 C 181.433594 1.957031 184.46875 1.882812 187.507812 1.882812 C 190.546875 1.882812 193.582031 1.957031 196.617188 2.105469 C 199.648438 2.253906 202.679688 2.480469 205.703125 2.777344 C 208.726562 3.074219 211.738281 3.445312 214.746094 3.890625 C 217.75 4.335938 220.742188 4.855469 223.722656 5.449219 C 226.699219 6.042969 229.664062 6.707031 232.609375 7.445312 C 235.558594 8.183594 238.484375 8.992188 241.390625 9.875 C 244.296875 10.757812 247.183594 11.710938 250.042969 12.734375 C 252.902344 13.757812 255.738281 14.851562 258.542969 16.011719 C 261.351562 17.175781 264.125 18.40625 266.871094 19.703125 C 269.617188 21.003906 272.332031 22.367188 275.011719 23.800781 C 277.691406 25.234375 280.332031 26.730469 282.9375 28.292969 C 285.542969 29.851562 288.109375 31.476562 290.636719 33.164062 C 293.160156 34.855469 295.644531 36.601562 298.085938 38.414062 C 300.523438 40.222656 302.917969 42.089844 305.265625 44.015625 C 307.613281 45.945312 309.914062 47.929688 312.164062 49.96875 C 314.417969 52.007812 316.617188 54.101562 318.765625 56.25 C 320.914062 58.398438 323.007812 60.597656 325.046875 62.847656 C 327.085938 65.101562 329.070312 67.398438 330.996094 69.75 C 332.925781 72.097656 334.792969 74.492188 336.601562 76.929688 C 338.414062 79.371094 340.160156 81.855469 341.847656 84.378906 C 343.535156 86.90625 345.160156 89.472656 346.722656 92.078125 C 348.285156 94.683594 349.78125 97.324219 351.214844 100.003906 C 352.644531 102.683594 354.011719 105.394531 355.308594 108.144531 C 356.609375 110.890625 357.839844 113.664062 359.003906 116.472656 C 360.164062 119.277344 361.257812 122.113281 362.28125 124.972656 C 363.304688 127.832031 364.257812 130.714844 365.140625 133.625 C 366.019531 136.53125 366.832031 139.457031 367.570312 142.40625 C 368.308594 145.351562 368.972656 148.3125 369.566406 151.292969 C 370.160156 154.273438 370.675781 157.265625 371.125 160.269531 C 371.570312 163.277344 371.941406 166.289062 372.238281 169.3125 C 372.535156 172.335938 372.761719 175.363281 372.910156 178.398438 C 373.058594 181.433594 373.132812 184.46875 373.132812 187.507812 Z M 373.132812 187.507812 " fill-opacity="1" fill-rule="nonzero"/></g><path fill="#b8d1c1" d="M 260.320312 179.671875 C 262.546875 182.375 265.769531 183.773438 269.015625 183.773438 C 271.535156 183.773438 274.066406 182.933594 276.160156 181.210938 C 280.960938 177.265625 281.652344 170.175781 277.703125 165.378906 L 241.511719 121.429688 C 239.40625 118.875 236.285156 117.375 232.972656 117.332031 C 229.675781 117.253906 226.5 118.703125 224.328125 121.199219 L 212.480469 134.824219 L 212.785156 167.21875 C 212.789062 167.785156 212.746094 168.339844 212.679688 168.890625 L 223.929688 155.953125 L 232.589844 145.996094 Z M 260.320312 179.671875 " fill-opacity="1" fill-rule="nonzero"/><g clip-path="url(#bd7c65bb4a)"><path fill="#b8d1c1" d="M 204.363281 177.3125 C 208.148438 175.535156 210.753906 171.6875 210.710938 167.238281 L 210.367188 130.078125 L 210.34375 127.550781 L 217.667969 125.707031 L 222.761719 119.84375 C 225.296875 116.933594 228.921875 115.261719 232.71875 115.261719 L 233.019531 115.265625 C 236.628906 115.3125 240.03125 116.835938 242.5 119.449219 L 257.300781 115.722656 C 263.207031 114.234375 266.789062 108.242188 265.300781 102.339844 C 263.8125 96.4375 257.816406 92.863281 251.910156 94.347656 L 196.539062 108.292969 C 196.445312 108.316406 196.359375 108.351562 196.265625 108.375 C 196.050781 108.4375 195.835938 108.5 195.628906 108.574219 C 195.480469 108.621094 195.335938 108.679688 195.195312 108.734375 C 195.003906 108.808594 194.820312 108.886719 194.636719 108.96875 C 194.472656 109.042969 194.316406 109.121094 194.160156 109.203125 C 194.003906 109.285156 193.851562 109.367188 193.703125 109.453125 C 193.53125 109.550781 193.367188 109.65625 193.199219 109.761719 C 193.070312 109.847656 192.945312 109.933594 192.820312 110.023438 C 192.652344 110.144531 192.488281 110.269531 192.328125 110.398438 C 192.210938 110.492188 192.101562 110.585938 191.988281 110.679688 C 191.835938 110.816406 191.683594 110.953125 191.539062 111.097656 C 191.429688 111.203125 191.320312 111.3125 191.214844 111.421875 C 191.085938 111.5625 190.957031 111.707031 190.832031 111.855469 C 190.722656 111.984375 190.617188 112.113281 190.511719 112.246094 C 190.40625 112.386719 190.304688 112.527344 190.203125 112.667969 C 190.09375 112.824219 189.992188 112.976562 189.894531 113.136719 C 189.808594 113.269531 189.726562 113.40625 189.648438 113.546875 C 189.550781 113.71875 189.457031 113.894531 189.367188 114.070312 C 189.300781 114.207031 189.234375 114.347656 189.171875 114.488281 C 189.089844 114.671875 189.011719 114.851562 188.941406 115.039062 C 188.882812 115.191406 188.832031 115.34375 188.78125 115.496094 C 188.71875 115.675781 188.664062 115.855469 188.613281 116.035156 C 188.5625 116.210938 188.519531 116.390625 188.480469 116.570312 C 188.445312 116.730469 188.410156 116.894531 188.378906 117.058594 C 188.34375 117.269531 188.316406 117.480469 188.289062 117.691406 C 188.273438 117.832031 188.257812 117.976562 188.246094 118.117188 C 188.226562 118.351562 188.21875 118.585938 188.21875 118.824219 C 188.214844 118.910156 188.207031 118.996094 188.207031 119.085938 L 188.492188 149.8125 C 175.238281 152.105469 160.554688 151.070312 149.84375 150.722656 C 149.683594 150.703125 149.519531 150.6875 149.359375 150.675781 C 149.703125 147.582031 150.035156 144.011719 150.246094 140.375 C 150.996094 127.390625 150.488281 114.980469 141.757812 112.101562 C 134.183594 109.601562 128.085938 117.070312 126.078125 119.527344 C 125.0625 120.769531 124.003906 122.1875 122.898438 123.78125 C 127.886719 124.441406 132.445312 126.75 135.917969 130.328125 C 135.949219 130.28125 135.984375 130.234375 136.015625 130.191406 C 136.019531 130.269531 136.019531 130.355469 136.023438 130.433594 C 137.078125 131.53125 138.03125 132.742188 138.859375 134.066406 C 142.023438 139.117188 143.027344 145.101562 141.691406 150.90625 C 140.351562 156.714844 136.832031 161.65625 131.773438 164.816406 C 129.878906 166 127.835938 166.878906 125.707031 167.449219 C 123.359375 170.332031 121.007812 173.066406 118.835938 175.433594 C 119.492188 173.375 120.320312 170.964844 121.339844 168.167969 C 120.875 168.195312 120.414062 168.214844 119.949219 168.214844 C 115.371094 168.214844 111.03125 166.839844 107.390625 164.371094 C 105.136719 170.652344 103.585938 175.765625 102.699219 179.832031 C 101.925781 183.378906 99.871094 192.804688 106.664062 196.628906 C 108.136719 197.457031 109.621094 197.847656 111.140625 197.847656 C 116.796875 197.847656 122.933594 192.453125 130.457031 184.054688 C 132.542969 181.726562 134.53125 179.375 136.246094 177.28125 C 139.300781 180.03125 143.46875 182.191406 148.859375 183.117188 C 167.769531 186.257812 179.652344 185.664062 199.023438 180.167969 C 200.941406 179.460938 202.585938 178.65625 204.003906 177.777344 C 204.125 177.710938 204.246094 177.648438 204.363281 177.578125 Z M 204.363281 177.3125 " fill-opacity="1" fill-rule="nonzero"/></g><path fill="#b8d1c1" d="M 137.101562 135.160156 C 137.453125 135.722656 137.777344 136.300781 138.074219 136.894531 C 138.367188 137.488281 138.632812 138.09375 138.867188 138.714844 C 139.105469 139.335938 139.308594 139.964844 139.480469 140.605469 C 139.65625 141.246094 139.796875 141.890625 139.90625 142.546875 C 140.015625 143.199219 140.09375 143.855469 140.140625 144.519531 C 140.183594 145.179688 140.199219 145.84375 140.175781 146.503906 C 140.15625 147.167969 140.105469 147.828125 140.019531 148.484375 C 139.9375 149.144531 139.820312 149.792969 139.671875 150.441406 C 139.519531 151.085938 139.339844 151.722656 139.128906 152.351562 C 138.917969 152.980469 138.675781 153.597656 138.402344 154.203125 C 138.132812 154.808594 137.832031 155.398438 137.5 155.972656 C 137.171875 156.546875 136.8125 157.105469 136.429688 157.644531 C 136.042969 158.183594 135.632812 158.703125 135.195312 159.203125 C 134.761719 159.703125 134.300781 160.179688 133.816406 160.636719 C 133.335938 161.089844 132.832031 161.519531 132.304688 161.925781 C 131.78125 162.328125 131.238281 162.707031 130.675781 163.058594 C 130.113281 163.410156 129.535156 163.734375 128.9375 164.03125 C 128.34375 164.324219 127.738281 164.589844 127.117188 164.824219 C 126.496094 165.058594 125.867188 165.265625 125.226562 165.4375 C 124.585938 165.613281 123.9375 165.753906 123.285156 165.863281 C 122.628906 165.972656 121.972656 166.050781 121.308594 166.09375 C 120.648438 166.140625 119.984375 166.152344 119.324219 166.132812 C 118.660156 166.113281 118 166.0625 117.339844 165.976562 C 116.683594 165.890625 116.03125 165.773438 115.382812 165.625 C 114.738281 165.476562 114.097656 165.296875 113.46875 165.085938 C 112.839844 164.875 112.226562 164.632812 111.621094 164.359375 C 111.015625 164.089844 110.425781 163.789062 109.847656 163.457031 C 109.273438 163.128906 108.714844 162.769531 108.175781 162.386719 C 107.632812 162 107.113281 161.589844 106.613281 161.15625 C 106.113281 160.71875 105.636719 160.261719 105.183594 159.777344 C 104.726562 159.296875 104.296875 158.792969 103.890625 158.265625 C 103.488281 157.742188 103.109375 157.199219 102.753906 156.636719 C 102.402344 156.074219 102.082031 155.496094 101.785156 154.902344 C 101.488281 154.308594 101.226562 153.703125 100.988281 153.082031 C 100.753906 152.460938 100.550781 151.832031 100.375 151.191406 C 100.203125 150.550781 100.0625 149.90625 99.949219 149.25 C 99.839844 148.597656 99.761719 147.941406 99.71875 147.277344 C 99.671875 146.617188 99.660156 145.953125 99.679688 145.292969 C 99.699219 144.628906 99.753906 143.96875 99.835938 143.3125 C 99.921875 142.652344 100.039062 142.003906 100.1875 141.355469 C 100.335938 140.710938 100.515625 140.074219 100.726562 139.445312 C 100.941406 138.816406 101.183594 138.199219 101.453125 137.59375 C 101.726562 136.988281 102.027344 136.398438 102.355469 135.824219 C 102.6875 135.25 103.042969 134.691406 103.429688 134.152344 C 103.816406 133.613281 104.226562 133.09375 104.660156 132.59375 C 105.097656 132.09375 105.558594 131.617188 106.039062 131.160156 C 106.523438 130.707031 107.027344 130.277344 107.550781 129.871094 C 108.078125 129.464844 108.621094 129.089844 109.183594 128.738281 C 109.746094 128.386719 110.324219 128.0625 110.917969 127.765625 C 111.511719 127.472656 112.121094 127.207031 112.742188 126.972656 C 113.359375 126.734375 113.992188 126.53125 114.632812 126.359375 C 115.273438 126.183594 115.917969 126.042969 116.574219 125.933594 C 117.226562 125.824219 117.886719 125.746094 118.546875 125.703125 C 119.210938 125.65625 119.871094 125.644531 120.535156 125.664062 C 121.199219 125.683594 121.859375 125.734375 122.515625 125.820312 C 123.175781 125.90625 123.828125 126.023438 124.472656 126.171875 C 125.121094 126.320312 125.757812 126.5 126.386719 126.710938 C 127.015625 126.921875 127.632812 127.164062 128.238281 127.433594 C 128.84375 127.707031 129.433594 128.007812 130.007812 128.339844 C 130.585938 128.667969 131.140625 129.027344 131.683594 129.410156 C 132.222656 129.796875 132.742188 130.207031 133.242188 130.640625 C 133.742188 131.078125 134.222656 131.535156 134.675781 132.019531 C 135.128906 132.5 135.5625 133.003906 135.964844 133.53125 C 136.371094 134.054688 136.75 134.597656 137.101562 135.160156 Z M 137.101562 135.160156 " fill-opacity="1" fill-rule="nonzero"/><g fill="#b8d1c1" fill-opacity="1"><g transform="translate(112.06003, 244.89933)"><g><path d="M 29.09375 -17.765625 L 23.28125 -2.546875 C 22.863281 -1.453125 22.375 -0.671875 21.8125 -0.203125 C 21.25 0.253906 20.488281 0.484375 19.53125 0.484375 C 18.570312 0.484375 17.820312 0.253906 17.28125 -0.203125 C 16.738281 -0.671875 16.257812 -1.453125 15.84375 -2.546875 L 10.03125 -17.765625 L 9.265625 -3.125 C 9.203125 -1.78125 8.828125 -0.84375 8.140625 -0.3125 C 7.453125 0.21875 6.691406 0.484375 5.859375 0.484375 C 5.441406 0.484375 5.023438 0.414062 4.609375 0.28125 C 4.191406 0.15625 3.820312 -0.0390625 3.5 -0.3125 C 3.1875 -0.582031 2.929688 -0.945312 2.734375 -1.40625 C 2.546875 -1.875 2.46875 -2.445312 2.5 -3.125 L 3.9375 -29.5625 C 4.03125 -31.289062 4.453125 -32.472656 5.203125 -33.109375 C 5.960938 -33.753906 6.898438 -34.078125 8.015625 -34.078125 C 8.554688 -34.078125 9.035156 -34.015625 9.453125 -33.890625 C 9.867188 -33.765625 10.257812 -33.523438 10.625 -33.171875 C 11 -32.816406 11.351562 -32.332031 11.6875 -31.71875 C 12.019531 -31.113281 12.363281 -30.347656 12.71875 -29.421875 L 19.53125 -11.375 L 26.40625 -29.421875 C 26.75 -30.347656 27.085938 -31.113281 27.421875 -31.71875 C 27.765625 -32.332031 28.117188 -32.816406 28.484375 -33.171875 C 28.859375 -33.523438 29.257812 -33.765625 29.6875 -33.890625 C 30.125 -34.015625 30.597656 -34.078125 31.109375 -34.078125 C 32.222656 -34.078125 33.15625 -33.753906 33.90625 -33.109375 C 34.664062 -32.472656 35.09375 -31.289062 35.1875 -29.5625 L 36.625 -3.125 C 36.65625 -2.445312 36.570312 -1.875 36.375 -1.40625 C 36.1875 -0.945312 35.929688 -0.582031 35.609375 -0.3125 C 35.296875 -0.0390625 34.929688 0.15625 34.515625 0.28125 C 34.097656 0.414062 33.679688 0.484375 33.265625 0.484375 C 32.429688 0.484375 31.671875 0.21875 30.984375 -0.3125 C 30.296875 -0.84375 29.921875 -1.78125 29.859375 -3.125 Z M 29.09375 -17.765625 "/></g></g></g><g fill="#b8d1c1" fill-opacity="1"><g transform="translate(148.626499, 244.89933)"><g><path d="M 15.5 -5.234375 C 16.332031 -5.234375 17.082031 -5.3125 17.75 -5.46875 C 18.425781 -5.632812 19.035156 -5.800781 19.578125 -5.96875 C 20.128906 -6.144531 20.628906 -6.3125 21.078125 -6.46875 C 21.523438 -6.632812 21.957031 -6.71875 22.375 -6.71875 C 23.101562 -6.71875 23.695312 -6.507812 24.15625 -6.09375 C 24.625 -5.675781 24.859375 -5.101562 24.859375 -4.375 C 24.859375 -3.375 24.488281 -2.5625 23.75 -1.9375 C 23.019531 -1.320312 22.148438 -0.828125 21.140625 -0.453125 C 20.128906 -0.0859375 19.085938 0.15625 18.015625 0.28125 C 16.953125 0.414062 16.066406 0.484375 15.359375 0.484375 C 13.304688 0.484375 11.460938 0.195312 9.828125 -0.375 C 8.203125 -0.957031 6.820312 -1.785156 5.6875 -2.859375 C 4.550781 -3.929688 3.675781 -5.242188 3.0625 -6.796875 C 2.457031 -8.347656 2.15625 -10.082031 2.15625 -12 C 2.15625 -13.882812 2.398438 -15.585938 2.890625 -17.109375 C 3.390625 -18.628906 4.144531 -19.941406 5.15625 -21.046875 C 6.164062 -22.148438 7.414062 -23 8.90625 -23.59375 C 10.394531 -24.1875 12.128906 -24.484375 14.109375 -24.484375 C 15.992188 -24.484375 17.632812 -24.203125 19.03125 -23.640625 C 20.425781 -23.078125 21.585938 -22.320312 22.515625 -21.375 C 23.441406 -20.4375 24.132812 -19.347656 24.59375 -18.109375 C 25.0625 -16.878906 25.296875 -15.578125 25.296875 -14.203125 C 25.296875 -12.472656 24.867188 -11.253906 24.015625 -10.546875 C 23.171875 -9.847656 21.882812 -9.5 20.15625 -9.5 L 9.171875 -9.5 C 9.523438 -8.15625 10.203125 -7.109375 11.203125 -6.359375 C 12.210938 -5.609375 13.644531 -5.234375 15.5 -5.234375 Z M 14.109375 -18.765625 C 12.828125 -18.765625 11.796875 -18.4375 11.015625 -17.78125 C 10.234375 -17.125 9.664062 -16.207031 9.3125 -15.03125 L 18.484375 -15.03125 C 18.390625 -16.332031 17.941406 -17.28125 17.140625 -17.875 C 16.335938 -18.46875 15.328125 -18.765625 14.109375 -18.765625 Z M 14.109375 -18.765625 "/></g></g></g><g fill="#b8d1c1" fill-opacity="1"><g transform="translate(173.579801, 244.89933)"><g><path d="M 9.59375 -3.125 C 9.59375 -2.445312 9.5 -1.875 9.3125 -1.40625 C 9.125 -0.945312 8.867188 -0.582031 8.546875 -0.3125 C 8.222656 -0.0390625 7.851562 0.15625 7.4375 0.28125 C 7.019531 0.414062 6.601562 0.484375 6.1875 0.484375 C 5.351562 0.484375 4.582031 0.21875 3.875 -0.3125 C 3.175781 -0.84375 2.828125 -1.78125 2.828125 -3.125 L 2.828125 -20.875 C 2.828125 -22.21875 3.175781 -23.15625 3.875 -23.6875 C 4.582031 -24.21875 5.351562 -24.484375 6.1875 -24.484375 C 6.601562 -24.484375 7.019531 -24.414062 7.4375 -24.28125 C 7.851562 -24.15625 8.222656 -23.957031 8.546875 -23.6875 C 8.867188 -23.414062 9.125 -23.046875 9.3125 -22.578125 C 9.5 -22.117188 9.59375 -21.550781 9.59375 -20.875 C 10.363281 -22.28125 11.304688 -23.234375 12.421875 -23.734375 C 13.546875 -24.234375 14.828125 -24.484375 16.265625 -24.484375 C 18.671875 -24.484375 20.546875 -23.742188 21.890625 -22.265625 C 23.234375 -20.796875 23.90625 -18.507812 23.90625 -15.40625 L 23.90625 -3.125 C 23.90625 -2.445312 23.804688 -1.875 23.609375 -1.40625 C 23.421875 -0.945312 23.164062 -0.582031 22.84375 -0.3125 C 22.53125 -0.0390625 22.164062 0.15625 21.75 0.28125 C 21.332031 0.414062 20.914062 0.484375 20.5 0.484375 C 19.664062 0.484375 18.894531 0.21875 18.1875 -0.3125 C 17.488281 -0.84375 17.140625 -1.78125 17.140625 -3.125 L 17.140625 -15.265625 C 17.140625 -16.484375 16.832031 -17.367188 16.21875 -17.921875 C 15.613281 -18.484375 14.800781 -18.765625 13.78125 -18.765625 C 12.53125 -18.765625 11.519531 -18.1875 10.75 -17.03125 C 9.976562 -15.882812 9.59375 -13.953125 9.59375 -11.234375 Z M 9.59375 -3.125 "/></g></g></g><g fill="#b8d1c1" fill-opacity="1"><g transform="translate(197.765297, 244.89933)"><g><path d="M 4.078125 -28.5625 C 4.078125 -29.90625 4.425781 -30.835938 5.125 -31.359375 C 5.832031 -31.890625 6.601562 -32.15625 7.4375 -32.15625 C 7.851562 -32.15625 8.269531 -32.09375 8.6875 -31.96875 C 9.101562 -31.84375 9.46875 -31.640625 9.78125 -31.359375 C 10.101562 -31.085938 10.359375 -30.71875 10.546875 -30.25 C 10.742188 -29.789062 10.84375 -29.226562 10.84375 -28.5625 L 10.84375 -24 L 13.96875 -24 C 15.15625 -24 16.003906 -23.726562 16.515625 -23.1875 C 17.023438 -22.644531 17.28125 -21.957031 17.28125 -21.125 C 17.28125 -20.289062 17.023438 -19.609375 16.515625 -19.078125 C 16.003906 -18.546875 15.15625 -18.28125 13.96875 -18.28125 L 10.84375 -18.28125 L 10.84375 -8.828125 C 10.84375 -7.484375 11.039062 -6.570312 11.4375 -6.09375 C 11.84375 -5.613281 12.445312 -5.375 13.25 -5.375 C 13.789062 -5.375 14.222656 -5.4375 14.546875 -5.5625 C 14.867188 -5.695312 15.269531 -5.765625 15.75 -5.765625 C 16.289062 -5.765625 16.753906 -5.570312 17.140625 -5.1875 C 17.523438 -4.800781 17.71875 -4.253906 17.71875 -3.546875 C 17.71875 -2.753906 17.523438 -2.09375 17.140625 -1.5625 C 16.753906 -1.03125 16.265625 -0.613281 15.671875 -0.3125 C 15.078125 -0.0078125 14.421875 0.195312 13.703125 0.3125 C 12.984375 0.425781 12.269531 0.484375 11.5625 0.484375 C 9.320312 0.484375 7.515625 -0.191406 6.140625 -1.546875 C 4.765625 -2.910156 4.078125 -5.210938 4.078125 -8.453125 L 4.078125 -18.28125 L 3.703125 -18.28125 C 2.515625 -18.28125 1.664062 -18.546875 1.15625 -19.078125 C 0.644531 -19.609375 0.390625 -20.289062 0.390625 -21.125 C 0.390625 -21.957031 0.644531 -22.644531 1.15625 -23.1875 C 1.664062 -23.726562 2.515625 -24 3.703125 -24 L 4.078125 -24 Z M 4.078125 -28.5625 "/></g></g></g><g fill="#b8d1c1" fill-opacity="1"><g transform="translate(213.408878, 244.89933)"><g><path d="M 22.265625 -8.359375 C 22.265625 -7.460938 22.289062 -6.71875 22.34375 -6.125 C 22.394531 -5.53125 22.457031 -5.015625 22.53125 -4.578125 C 22.613281 -4.148438 22.675781 -3.765625 22.71875 -3.421875 C 22.769531 -3.085938 22.796875 -2.734375 22.796875 -2.359375 C 22.796875 -1.554688 22.53125 -0.878906 22 -0.328125 C 21.476562 0.210938 20.707031 0.484375 19.6875 0.484375 C 18.59375 0.484375 17.71875 0.195312 17.0625 -0.375 C 16.40625 -0.957031 15.882812 -1.773438 15.5 -2.828125 C 14.769531 -1.804688 13.828125 -1 12.671875 -0.40625 C 11.515625 0.1875 10.347656 0.484375 9.171875 0.484375 C 6.578125 0.484375 4.597656 -0.175781 3.234375 -1.5 C 1.878906 -2.832031 1.203125 -4.75 1.203125 -7.25 C 1.203125 -8.6875 1.460938 -9.875 1.984375 -10.8125 C 2.515625 -11.757812 3.234375 -12.503906 4.140625 -13.046875 C 5.054688 -13.597656 6.125 -13.976562 7.34375 -14.1875 C 8.5625 -14.394531 9.84375 -14.5 11.1875 -14.5 C 11.914062 -14.5 12.648438 -14.460938 13.390625 -14.390625 C 14.128906 -14.328125 14.832031 -14.25 15.5 -14.15625 L 15.5 -15.9375 C 15.5 -16.925781 15.21875 -17.644531 14.65625 -18.09375 C 14.101562 -18.539062 13.363281 -18.765625 12.4375 -18.765625 C 11.789062 -18.765625 11.242188 -18.644531 10.796875 -18.40625 C 10.347656 -18.164062 9.914062 -17.867188 9.5 -17.515625 C 9.082031 -17.160156 8.632812 -16.847656 8.15625 -16.578125 C 7.675781 -16.304688 7.019531 -16.171875 6.1875 -16.171875 C 5.164062 -16.171875 4.347656 -16.414062 3.734375 -16.90625 C 3.128906 -17.40625 2.828125 -18.023438 2.828125 -18.765625 C 2.828125 -19.722656 3.109375 -20.5625 3.671875 -21.28125 C 4.234375 -22.007812 4.960938 -22.601562 5.859375 -23.0625 C 6.753906 -23.53125 7.742188 -23.882812 8.828125 -24.125 C 9.921875 -24.363281 11.007812 -24.484375 12.09375 -24.484375 C 13.4375 -24.484375 14.722656 -24.3125 15.953125 -23.96875 C 17.191406 -23.632812 18.273438 -23.125 19.203125 -22.4375 C 20.128906 -21.75 20.867188 -20.882812 21.421875 -19.84375 C 21.984375 -18.800781 22.265625 -17.578125 22.265625 -16.171875 Z M 12.53125 -9.796875 C 11.15625 -9.796875 10.050781 -9.617188 9.21875 -9.265625 C 8.382812 -8.910156 7.96875 -8.222656 7.96875 -7.203125 C 7.96875 -6.523438 8.195312 -6.023438 8.65625 -5.703125 C 9.125 -5.390625 9.773438 -5.234375 10.609375 -5.234375 C 11.148438 -5.234375 11.707031 -5.320312 12.28125 -5.5 C 12.863281 -5.675781 13.394531 -5.921875 13.875 -6.234375 C 14.351562 -6.554688 14.742188 -6.929688 15.046875 -7.359375 C 15.347656 -7.796875 15.5 -8.269531 15.5 -8.78125 C 15.5 -9.101562 15.289062 -9.351562 14.875 -9.53125 C 14.457031 -9.707031 13.675781 -9.796875 12.53125 -9.796875 Z M 12.53125 -9.796875 "/></g></g></g><g fill="#b8d1c1" fill-opacity="1"><g transform="translate(235.962767, 244.89933)"><g><path d="M 9.59375 -7.78125 C 9.59375 -6.269531 10.125 -5.515625 11.1875 -5.515625 C 12.976562 -5.515625 13.875 -4.71875 13.875 -3.125 C 13.875 -1.75 13.410156 -0.800781 12.484375 -0.28125 C 11.554688 0.226562 10.382812 0.484375 8.96875 0.484375 C 8.113281 0.484375 7.304688 0.34375 6.546875 0.0625 C 5.796875 -0.207031 5.140625 -0.644531 4.578125 -1.25 C 4.023438 -1.851562 3.59375 -2.632812 3.28125 -3.59375 C 2.976562 -4.5625 2.828125 -5.734375 2.828125 -7.109375 L 2.828125 -31.921875 C 2.828125 -33.265625 3.175781 -34.195312 3.875 -34.71875 C 4.582031 -35.25 5.351562 -35.515625 6.1875 -35.515625 C 6.601562 -35.515625 7.019531 -35.453125 7.4375 -35.328125 C 7.851562 -35.203125 8.222656 -35 8.546875 -34.71875 C 8.867188 -34.445312 9.125 -34.078125 9.3125 -33.609375 C 9.5 -33.148438 9.59375 -32.585938 9.59375 -31.921875 Z M 9.59375 -7.78125 "/></g></g></g><g fill="#b8d1c1" fill-opacity="1"><g transform="translate(248.056115, 244.89933)"><g/></g></g><g fill="#b8d1c1" fill-opacity="1"><g transform="translate(66.474096, 293.649326)"><g><path d="M 2.828125 -30.484375 C 2.828125 -31.828125 3.175781 -32.757812 3.875 -33.28125 C 4.582031 -33.8125 5.351562 -34.078125 6.1875 -34.078125 C 6.601562 -34.078125 7.019531 -34.015625 7.4375 -33.890625 C 7.851562 -33.765625 8.222656 -33.5625 8.546875 -33.28125 C 8.867188 -33.007812 9.125 -32.640625 9.3125 -32.171875 C 9.5 -31.710938 9.59375 -31.148438 9.59375 -30.484375 L 9.59375 -19.203125 L 22.703125 -19.203125 L 22.703125 -30.484375 C 22.703125 -31.828125 23.050781 -32.757812 23.75 -33.28125 C 24.457031 -33.8125 25.226562 -34.078125 26.0625 -34.078125 C 26.476562 -34.078125 26.894531 -34.015625 27.3125 -33.890625 C 27.726562 -33.765625 28.09375 -33.5625 28.40625 -33.28125 C 28.726562 -33.007812 28.984375 -32.640625 29.171875 -32.171875 C 29.367188 -31.710938 29.46875 -31.148438 29.46875 -30.484375 L 29.46875 -3.125 C 29.46875 -2.445312 29.367188 -1.875 29.171875 -1.40625 C 28.984375 -0.945312 28.726562 -0.582031 28.40625 -0.3125 C 28.09375 -0.0390625 27.726562 0.15625 27.3125 0.28125 C 26.894531 0.414062 26.476562 0.484375 26.0625 0.484375 C 25.226562 0.484375 24.457031 0.21875 23.75 -0.3125 C 23.050781 -0.84375 22.703125 -1.78125 22.703125 -3.125 L 22.703125 -13.484375 L 9.59375 -13.484375 L 9.59375 -3.125 C 9.59375 -2.445312 9.5 -1.875 9.3125 -1.40625 C 9.125 -0.945312 8.867188 -0.582031 8.546875 -0.3125 C 8.222656 -0.0390625 7.851562 0.15625 7.4375 0.28125 C 7.019531 0.414062 6.601562 0.484375 6.1875 0.484375 C 5.351562 0.484375 4.582031 0.21875 3.875 -0.3125 C 3.175781 -0.84375 2.828125 -1.78125 2.828125 -3.125 Z M 2.828125 -30.484375 "/></g></g></g><g fill="#b8d1c1" fill-opacity="1"><g transform="translate(96.226226, 293.649326)"><g><path d="M 15.5 -5.234375 C 16.332031 -5.234375 17.082031 -5.3125 17.75 -5.46875 C 18.425781 -5.632812 19.035156 -5.800781 19.578125 -5.96875 C 20.128906 -6.144531 20.628906 -6.3125 21.078125 -6.46875 C 21.523438 -6.632812 21.957031 -6.71875 22.375 -6.71875 C 23.101562 -6.71875 23.695312 -6.507812 24.15625 -6.09375 C 24.625 -5.675781 24.859375 -5.101562 24.859375 -4.375 C 24.859375 -3.375 24.488281 -2.5625 23.75 -1.9375 C 23.019531 -1.320312 22.148438 -0.828125 21.140625 -0.453125 C 20.128906 -0.0859375 19.085938 0.15625 18.015625 0.28125 C 16.953125 0.414062 16.066406 0.484375 15.359375 0.484375 C 13.304688 0.484375 11.460938 0.195312 9.828125 -0.375 C 8.203125 -0.957031 6.820312 -1.785156 5.6875 -2.859375 C 4.550781 -3.929688 3.675781 -5.242188 3.0625 -6.796875 C 2.457031 -8.347656 2.15625 -10.082031 2.15625 -12 C 2.15625 -13.882812 2.398438 -15.585938 2.890625 -17.109375 C 3.390625 -18.628906 4.144531 -19.941406 5.15625 -21.046875 C 6.164062 -22.148438 7.414062 -23 8.90625 -23.59375 C 10.394531 -24.1875 12.128906 -24.484375 14.109375 -24.484375 C 15.992188 -24.484375 17.632812 -24.203125 19.03125 -23.640625 C 20.425781 -23.078125 21.585938 -22.320312 22.515625 -21.375 C 23.441406 -20.4375 24.132812 -19.347656 24.59375 -18.109375 C 25.0625 -16.878906 25.296875 -15.578125 25.296875 -14.203125 C 25.296875 -12.472656 24.867188 -11.253906 24.015625 -10.546875 C 23.171875 -9.847656 21.882812 -9.5 20.15625 -9.5 L 9.171875 -9.5 C 9.523438 -8.15625 10.203125 -7.109375 11.203125 -6.359375 C 12.210938 -5.609375 13.644531 -5.234375 15.5 -5.234375 Z M 14.109375 -18.765625 C 12.828125 -18.765625 11.796875 -18.4375 11.015625 -17.78125 C 10.234375 -17.125 9.664062 -16.207031 9.3125 -15.03125 L 18.484375 -15.03125 C 18.390625 -16.332031 17.941406 -17.28125 17.140625 -17.875 C 16.335938 -18.46875 15.328125 -18.765625 14.109375 -18.765625 Z M 14.109375 -18.765625 "/></g></g></g><g fill="#b8d1c1" fill-opacity="1"><g transform="translate(121.179529, 293.649326)"><g><path d="M 22.265625 -8.359375 C 22.265625 -7.460938 22.289062 -6.71875 22.34375 -6.125 C 22.394531 -5.53125 22.457031 -5.015625 22.53125 -4.578125 C 22.613281 -4.148438 22.675781 -3.765625 22.71875 -3.421875 C 22.769531 -3.085938 22.796875 -2.734375 22.796875 -2.359375 C 22.796875 -1.554688 22.53125 -0.878906 22 -0.328125 C 21.476562 0.210938 20.707031 0.484375 19.6875 0.484375 C 18.59375 0.484375 17.71875 0.195312 17.0625 -0.375 C 16.40625 -0.957031 15.882812 -1.773438 15.5 -2.828125 C 14.769531 -1.804688 13.828125 -1 12.671875 -0.40625 C 11.515625 0.1875 10.347656 0.484375 9.171875 0.484375 C 6.578125 0.484375 4.597656 -0.175781 3.234375 -1.5 C 1.878906 -2.832031 1.203125 -4.75 1.203125 -7.25 C 1.203125 -8.6875 1.460938 -9.875 1.984375 -10.8125 C 2.515625 -11.757812 3.234375 -12.503906 4.140625 -13.046875 C 5.054688 -13.597656 6.125 -13.976562 7.34375 -14.1875 C 8.5625 -14.394531 9.84375 -14.5 11.1875 -14.5 C 11.914062 -14.5 12.648438 -14.460938 13.390625 -14.390625 C 14.128906 -14.328125 14.832031 -14.25 15.5 -14.15625 L 15.5 -15.9375 C 15.5 -16.925781 15.21875 -17.644531 14.65625 -18.09375 C 14.101562 -18.539062 13.363281 -18.765625 12.4375 -18.765625 C 11.789062 -18.765625 11.242188 -18.644531 10.796875 -18.40625 C 10.347656 -18.164062 9.914062 -17.867188 9.5 -17.515625 C 9.082031 -17.160156 8.632812 -16.847656 8.15625 -16.578125 C 7.675781 -16.304688 7.019531 -16.171875 6.1875 -16.171875 C 5.164062 -16.171875 4.347656 -16.414062 3.734375 -16.90625 C 3.128906 -17.40625 2.828125 -18.023438 2.828125 -18.765625 C 2.828125 -19.722656 3.109375 -20.5625 3.671875 -21.28125 C 4.234375 -22.007812 4.960938 -22.601562 5.859375 -23.0625 C 6.753906 -23.53125 7.742188 -23.882812 8.828125 -24.125 C 9.921875 -24.363281 11.007812 -24.484375 12.09375 -24.484375 C 13.4375 -24.484375 14.722656 -24.3125 15.953125 -23.96875 C 17.191406 -23.632812 18.273438 -23.125 19.203125 -22.4375 C 20.128906 -21.75 20.867188 -20.882812 21.421875 -19.84375 C 21.984375 -18.800781 22.265625 -17.578125 22.265625 -16.171875 Z M 12.53125 -9.796875 C 11.15625 -9.796875 10.050781 -9.617188 9.21875 -9.265625 C 8.382812 -8.910156 7.96875 -8.222656 7.96875 -7.203125 C 7.96875 -6.523438 8.195312 -6.023438 8.65625 -5.703125 C 9.125 -5.390625 9.773438 -5.234375 10.609375 -5.234375 C 11.148438 -5.234375 11.707031 -5.320312 12.28125 -5.5 C 12.863281 -5.675781 13.394531 -5.921875 13.875 -6.234375 C 14.351562 -6.554688 14.742188 -6.929688 15.046875 -7.359375 C 15.347656 -7.796875 15.5 -8.269531 15.5 -8.78125 C 15.5 -9.101562 15.289062 -9.351562 14.875 -9.53125 C 14.457031 -9.707031 13.675781 -9.796875 12.53125 -9.796875 Z M 12.53125 -9.796875 "/></g></g></g><g fill="#b8d1c1" fill-opacity="1"><g transform="translate(143.733418, 293.649326)"><g><path d="M 9.59375 -7.78125 C 9.59375 -6.269531 10.125 -5.515625 11.1875 -5.515625 C 12.976562 -5.515625 13.875 -4.71875 13.875 -3.125 C 13.875 -1.75 13.410156 -0.800781 12.484375 -0.28125 C 11.554688 0.226562 10.382812 0.484375 8.96875 0.484375 C 8.113281 0.484375 7.304688 0.34375 6.546875 0.0625 C 5.796875 -0.207031 5.140625 -0.644531 4.578125 -1.25 C 4.023438 -1.851562 3.59375 -2.632812 3.28125 -3.59375 C 2.976562 -4.5625 2.828125 -5.734375 2.828125 -7.109375 L 2.828125 -31.921875 C 2.828125 -33.265625 3.175781 -34.195312 3.875 -34.71875 C 4.582031 -35.25 5.351562 -35.515625 6.1875 -35.515625 C 6.601562 -35.515625 7.019531 -35.453125 7.4375 -35.328125 C 7.851562 -35.203125 8.222656 -35 8.546875 -34.71875 C 8.867188 -34.445312 9.125 -34.078125 9.3125 -33.609375 C 9.5 -33.148438 9.59375 -32.585938 9.59375 -31.921875 Z M 9.59375 -7.78125 "/></g></g></g><g fill="#b8d1c1" fill-opacity="1"><g transform="translate(155.825862, 293.649326)"><g><path d="M 4.078125 -28.5625 C 4.078125 -29.90625 4.425781 -30.835938 5.125 -31.359375 C 5.832031 -31.890625 6.601562 -32.15625 7.4375 -32.15625 C 7.851562 -32.15625 8.269531 -32.09375 8.6875 -31.96875 C 9.101562 -31.84375 9.46875 -31.640625 9.78125 -31.359375 C 10.101562 -31.085938 10.359375 -30.71875 10.546875 -30.25 C 10.742188 -29.789062 10.84375 -29.226562 10.84375 -28.5625 L 10.84375 -24 L 13.96875 -24 C 15.15625 -24 16.003906 -23.726562 16.515625 -23.1875 C 17.023438 -22.644531 17.28125 -21.957031 17.28125 -21.125 C 17.28125 -20.289062 17.023438 -19.609375 16.515625 -19.078125 C 16.003906 -18.546875 15.15625 -18.28125 13.96875 -18.28125 L 10.84375 -18.28125 L 10.84375 -8.828125 C 10.84375 -7.484375 11.039062 -6.570312 11.4375 -6.09375 C 11.84375 -5.613281 12.445312 -5.375 13.25 -5.375 C 13.789062 -5.375 14.222656 -5.4375 14.546875 -5.5625 C 14.867188 -5.695312 15.269531 -5.765625 15.75 -5.765625 C 16.289062 -5.765625 16.753906 -5.570312 17.140625 -5.1875 C 17.523438 -4.800781 17.71875 -4.253906 17.71875 -3.546875 C 17.71875 -2.753906 17.523438 -2.09375 17.140625 -1.5625 C 16.753906 -1.03125 16.265625 -0.613281 15.671875 -0.3125 C 15.078125 -0.0078125 14.421875 0.195312 13.703125 0.3125 C 12.984375 0.425781 12.269531 0.484375 11.5625 0.484375 C 9.320312 0.484375 7.515625 -0.191406 6.140625 -1.546875 C 4.765625 -2.910156 4.078125 -5.210938 4.078125 -8.453125 L 4.078125 -18.28125 L 3.703125 -18.28125 C 2.515625 -18.28125 1.664062 -18.546875 1.15625 -19.078125 C 0.644531 -19.609375 0.390625 -20.289062 0.390625 -21.125 C 0.390625 -21.957031 0.644531 -22.644531 1.15625 -23.1875 C 1.664062 -23.726562 2.515625 -24 3.703125 -24 L 4.078125 -24 Z M 4.078125 -28.5625 "/></g></g></g><g fill="#b8d1c1" fill-opacity="1"><g transform="translate(171.469443, 293.649326)"><g><path d="M 9.59375 -3.125 C 9.59375 -2.445312 9.5 -1.875 9.3125 -1.40625 C 9.125 -0.945312 8.867188 -0.582031 8.546875 -0.3125 C 8.222656 -0.0390625 7.851562 0.15625 7.4375 0.28125 C 7.019531 0.414062 6.601562 0.484375 6.1875 0.484375 C 5.351562 0.484375 4.582031 0.21875 3.875 -0.3125 C 3.175781 -0.84375 2.828125 -1.78125 2.828125 -3.125 L 2.828125 -31.921875 C 2.828125 -33.265625 3.175781 -34.195312 3.875 -34.71875 C 4.582031 -35.25 5.351562 -35.515625 6.1875 -35.515625 C 6.601562 -35.515625 7.019531 -35.453125 7.4375 -35.328125 C 7.851562 -35.203125 8.222656 -35 8.546875 -34.71875 C 8.867188 -34.445312 9.125 -34.078125 9.3125 -33.609375 C 9.5 -33.148438 9.59375 -32.585938 9.59375 -31.921875 L 9.59375 -21.75 C 10.519531 -22.675781 11.503906 -23.363281 12.546875 -23.8125 C 13.585938 -24.257812 14.828125 -24.484375 16.265625 -24.484375 C 18.671875 -24.484375 20.546875 -23.742188 21.890625 -22.265625 C 23.234375 -20.796875 23.90625 -18.507812 23.90625 -15.40625 L 23.90625 -3.125 C 23.90625 -2.445312 23.804688 -1.875 23.609375 -1.40625 C 23.421875 -0.945312 23.164062 -0.582031 22.84375 -0.3125 C 22.53125 -0.0390625 22.164062 0.15625 21.75 0.28125 C 21.332031 0.414062 20.914062 0.484375 20.5 0.484375 C 19.664062 0.484375 18.894531 0.21875 18.1875 -0.3125 C 17.488281 -0.84375 17.140625 -1.78125 17.140625 -3.125 L 17.140625 -15.265625 C 17.140625 -16.484375 16.832031 -17.367188 16.21875 -17.921875 C 15.613281 -18.484375 14.800781 -18.765625 13.78125 -18.765625 C 12.53125 -18.765625 11.519531 -18.1875 10.75 -17.03125 C 9.976562 -15.882812 9.59375 -13.953125 9.59375 -11.234375 Z M 9.59375 -3.125 "/></g></g></g><g fill="#b8d1c1" fill-opacity="1"><g transform="translate(195.654939, 293.649326)"><g/></g></g><g fill="#b8d1c1" fill-opacity="1"><g transform="translate(207.98732, 293.649326)"><g><path d="M 9.59375 -20.296875 L 9.59375 -3.125 C 9.59375 -2.445312 9.5 -1.875 9.3125 -1.40625 C 9.125 -0.945312 8.867188 -0.582031 8.546875 -0.3125 C 8.222656 -0.0390625 7.851562 0.15625 7.4375 0.28125 C 7.019531 0.414062 6.601562 0.484375 6.1875 0.484375 C 5.351562 0.484375 4.582031 0.21875 3.875 -0.3125 C 3.175781 -0.84375 2.828125 -1.78125 2.828125 -3.125 L 2.828125 -29.859375 C 2.828125 -31.296875 3.144531 -32.359375 3.78125 -33.046875 C 4.425781 -33.734375 5.28125 -34.078125 6.34375 -34.078125 C 7.195312 -34.078125 7.9375 -33.867188 8.5625 -33.453125 C 9.1875 -33.035156 9.867188 -32.269531 10.609375 -31.15625 L 22.46875 -13.25 L 22.46875 -30.484375 C 22.46875 -31.828125 22.816406 -32.757812 23.515625 -33.28125 C 24.222656 -33.8125 24.992188 -34.078125 25.828125 -34.078125 C 26.242188 -34.078125 26.660156 -34.015625 27.078125 -33.890625 C 27.492188 -33.765625 27.859375 -33.5625 28.171875 -33.28125 C 28.492188 -33.007812 28.75 -32.640625 28.9375 -32.171875 C 29.132812 -31.710938 29.234375 -31.148438 29.234375 -30.484375 L 29.234375 -3.75 C 29.234375 -2.300781 28.910156 -1.234375 28.265625 -0.546875 C 27.628906 0.140625 26.785156 0.484375 25.734375 0.484375 C 24.867188 0.484375 24.125 0.273438 23.5 -0.140625 C 22.875 -0.554688 22.191406 -1.328125 21.453125 -2.453125 Z M 9.59375 -20.296875 "/></g></g></g><g fill="#b8d1c1" fill-opacity="1"><g transform="translate(237.499514, 293.649326)"><g><path d="M 22.265625 -8.359375 C 22.265625 -7.460938 22.289062 -6.71875 22.34375 -6.125 C 22.394531 -5.53125 22.457031 -5.015625 22.53125 -4.578125 C 22.613281 -4.148438 22.675781 -3.765625 22.71875 -3.421875 C 22.769531 -3.085938 22.796875 -2.734375 22.796875 -2.359375 C 22.796875 -1.554688 22.53125 -0.878906 22 -0.328125 C 21.476562 0.210938 20.707031 0.484375 19.6875 0.484375 C 18.59375 0.484375 17.71875 0.195312 17.0625 -0.375 C 16.40625 -0.957031 15.882812 -1.773438 15.5 -2.828125 C 14.769531 -1.804688 13.828125 -1 12.671875 -0.40625 C 11.515625 0.1875 10.347656 0.484375 9.171875 0.484375 C 6.578125 0.484375 4.597656 -0.175781 3.234375 -1.5 C 1.878906 -2.832031 1.203125 -4.75 1.203125 -7.25 C 1.203125 -8.6875 1.460938 -9.875 1.984375 -10.8125 C 2.515625 -11.757812 3.234375 -12.503906 4.140625 -13.046875 C 5.054688 -13.597656 6.125 -13.976562 7.34375 -14.1875 C 8.5625 -14.394531 9.84375 -14.5 11.1875 -14.5 C 11.914062 -14.5 12.648438 -14.460938 13.390625 -14.390625 C 14.128906 -14.328125 14.832031 -14.25 15.5 -14.15625 L 15.5 -15.9375 C 15.5 -16.925781 15.21875 -17.644531 14.65625 -18.09375 C 14.101562 -18.539062 13.363281 -18.765625 12.4375 -18.765625 C 11.789062 -18.765625 11.242188 -18.644531 10.796875 -18.40625 C 10.347656 -18.164062 9.914062 -17.867188 9.5 -17.515625 C 9.082031 -17.160156 8.632812 -16.847656 8.15625 -16.578125 C 7.675781 -16.304688 7.019531 -16.171875 6.1875 -16.171875 C 5.164062 -16.171875 4.347656 -16.414062 3.734375 -16.90625 C 3.128906 -17.40625 2.828125 -18.023438 2.828125 -18.765625 C 2.828125 -19.722656 3.109375 -20.5625 3.671875 -21.28125 C 4.234375 -22.007812 4.960938 -22.601562 5.859375 -23.0625 C 6.753906 -23.53125 7.742188 -23.882812 8.828125 -24.125 C 9.921875 -24.363281 11.007812 -24.484375 12.09375 -24.484375 C 13.4375 -24.484375 14.722656 -24.3125 15.953125 -23.96875 C 17.191406 -23.632812 18.273438 -23.125 19.203125 -22.4375 C 20.128906 -21.75 20.867188 -20.882812 21.421875 -19.84375 C 21.984375 -18.800781 22.265625 -17.578125 22.265625 -16.171875 Z M 12.53125 -9.796875 C 11.15625 -9.796875 10.050781 -9.617188 9.21875 -9.265625 C 8.382812 -8.910156 7.96875 -8.222656 7.96875 -7.203125 C 7.96875 -6.523438 8.195312 -6.023438 8.65625 -5.703125 C 9.125 -5.390625 9.773438 -5.234375 10.609375 -5.234375 C 11.148438 -5.234375 11.707031 -5.320312 12.28125 -5.5 C 12.863281 -5.675781 13.394531 -5.921875 13.875 -6.234375 C 14.351562 -6.554688 14.742188 -6.929688 15.046875 -7.359375 C 15.347656 -7.796875 15.5 -8.269531 15.5 -8.78125 C 15.5 -9.101562 15.289062 -9.351562 14.875 -9.53125 C 14.457031 -9.707031 13.675781 -9.796875 12.53125 -9.796875 Z M 12.53125 -9.796875 "/></g></g></g><g fill="#b8d1c1" fill-opacity="1"><g transform="translate(260.053414, 293.649326)"><g><path d="M 2.828125 -20.875 C 2.828125 -22.21875 3.175781 -23.15625 3.875 -23.6875 C 4.582031 -24.21875 5.351562 -24.484375 6.1875 -24.484375 C 6.601562 -24.484375 7.019531 -24.414062 7.4375 -24.28125 C 7.851562 -24.15625 8.222656 -23.957031 8.546875 -23.6875 C 8.867188 -23.414062 9.125 -23.046875 9.3125 -22.578125 C 9.5 -22.117188 9.59375 -21.550781 9.59375 -20.875 C 10.269531 -21.90625 11.148438 -22.765625 12.234375 -23.453125 C 13.328125 -24.140625 14.640625 -24.484375 16.171875 -24.484375 C 17.515625 -24.484375 18.753906 -24.242188 19.890625 -23.765625 C 21.023438 -23.285156 22.007812 -22.546875 22.84375 -21.546875 C 23.675781 -20.554688 24.332031 -19.300781 24.8125 -17.78125 C 25.289062 -16.257812 25.53125 -14.476562 25.53125 -12.4375 C 25.53125 -8.082031 24.601562 -4.835938 22.75 -2.703125 C 20.894531 -0.578125 18.398438 0.484375 15.265625 0.484375 C 14.242188 0.484375 13.25 0.300781 12.28125 -0.0625 C 11.320312 -0.4375 10.425781 -1.039062 9.59375 -1.875 L 9.59375 6.484375 C 9.59375 7.148438 9.5 7.710938 9.3125 8.171875 C 9.125 8.640625 8.867188 9.007812 8.546875 9.28125 C 8.222656 9.5625 7.851562 9.765625 7.4375 9.890625 C 7.019531 10.015625 6.601562 10.078125 6.1875 10.078125 C 5.351562 10.078125 4.582031 9.8125 3.875 9.28125 C 3.175781 8.757812 2.828125 7.828125 2.828125 6.484375 Z M 9.59375 -10.65625 C 9.59375 -9.914062 9.671875 -9.21875 9.828125 -8.5625 C 9.992188 -7.90625 10.253906 -7.328125 10.609375 -6.828125 C 10.960938 -6.335938 11.425781 -5.945312 12 -5.65625 C 12.570312 -5.375 13.273438 -5.234375 14.109375 -5.234375 C 15.546875 -5.234375 16.679688 -5.851562 17.515625 -7.09375 C 18.347656 -8.34375 18.765625 -10.125 18.765625 -12.4375 C 18.765625 -14.613281 18.375 -16.210938 17.59375 -17.234375 C 16.8125 -18.253906 15.796875 -18.765625 14.546875 -18.765625 C 13.140625 -18.765625 11.960938 -18.082031 11.015625 -16.71875 C 10.066406 -15.363281 9.59375 -13.34375 9.59375 -10.65625 Z M 9.59375 -10.65625 "/></g></g></g><g fill="#b8d1c1" fill-opacity="1"><g transform="translate(285.198668, 293.649326)"><g><path d="M 11.515625 -5.234375 C 11.898438 -5.234375 12.273438 -5.25 12.640625 -5.28125 C 13.015625 -5.3125 13.351562 -5.390625 13.65625 -5.515625 C 13.957031 -5.648438 14.203125 -5.835938 14.390625 -6.078125 C 14.585938 -6.316406 14.6875 -6.628906 14.6875 -7.015625 C 14.6875 -7.617188 14.378906 -8.078125 13.765625 -8.390625 C 13.160156 -8.710938 12.410156 -9.007812 11.515625 -9.28125 C 10.617188 -9.5625 9.632812 -9.851562 8.5625 -10.15625 C 7.488281 -10.457031 6.503906 -10.882812 5.609375 -11.4375 C 4.710938 -12 3.960938 -12.738281 3.359375 -13.65625 C 2.753906 -14.570312 2.453125 -15.78125 2.453125 -17.28125 C 2.453125 -18.59375 2.710938 -19.703125 3.234375 -20.609375 C 3.765625 -21.523438 4.476562 -22.269531 5.375 -22.84375 C 6.269531 -23.425781 7.300781 -23.84375 8.46875 -24.09375 C 9.632812 -24.351562 10.84375 -24.484375 12.09375 -24.484375 C 12.957031 -24.484375 13.894531 -24.425781 14.90625 -24.3125 C 15.914062 -24.195312 16.859375 -23.972656 17.734375 -23.640625 C 18.617188 -23.304688 19.351562 -22.84375 19.9375 -22.25 C 20.53125 -21.65625 20.828125 -20.894531 20.828125 -19.96875 C 20.828125 -19.132812 20.554688 -18.523438 20.015625 -18.140625 C 19.472656 -17.753906 18.832031 -17.5625 18.09375 -17.5625 C 17.707031 -17.5625 17.3125 -17.625 16.90625 -17.75 C 16.507812 -17.882812 16.0625 -18.023438 15.5625 -18.171875 C 15.070312 -18.316406 14.523438 -18.453125 13.921875 -18.578125 C 13.316406 -18.703125 12.628906 -18.765625 11.859375 -18.765625 C 11.054688 -18.765625 10.414062 -18.644531 9.9375 -18.40625 C 9.457031 -18.164062 9.21875 -17.789062 9.21875 -17.28125 C 9.21875 -16.769531 9.519531 -16.367188 10.125 -16.078125 C 10.738281 -15.785156 11.492188 -15.503906 12.390625 -15.234375 C 13.285156 -14.960938 14.265625 -14.660156 15.328125 -14.328125 C 16.398438 -13.992188 17.382812 -13.546875 18.28125 -12.984375 C 19.175781 -12.421875 19.925781 -11.707031 20.53125 -10.84375 C 21.144531 -9.976562 21.453125 -8.859375 21.453125 -7.484375 C 21.453125 -6.078125 21.195312 -4.867188 20.6875 -3.859375 C 20.175781 -2.859375 19.472656 -2.035156 18.578125 -1.390625 C 17.679688 -0.753906 16.625 -0.285156 15.40625 0.015625 C 14.1875 0.328125 12.875 0.484375 11.46875 0.484375 C 10.414062 0.484375 9.296875 0.382812 8.109375 0.1875 C 6.929688 0 5.84375 -0.304688 4.84375 -0.734375 C 3.851562 -1.171875 3.03125 -1.722656 2.375 -2.390625 C 1.71875 -3.066406 1.390625 -3.867188 1.390625 -4.796875 C 1.390625 -5.628906 1.660156 -6.253906 2.203125 -6.671875 C 2.753906 -7.085938 3.394531 -7.296875 4.125 -7.296875 C 4.570312 -7.296875 5.039062 -7.191406 5.53125 -6.984375 C 6.03125 -6.773438 6.582031 -6.535156 7.1875 -6.265625 C 7.800781 -5.992188 8.46875 -5.753906 9.1875 -5.546875 C 9.90625 -5.335938 10.679688 -5.234375 11.515625 -5.234375 Z M 11.515625 -5.234375 "/></g></g></g><g fill="#b8d1c1" fill-opacity="1"><g transform="translate(115.64717, 88.326805)"><g><path d="M 3.0625 0 C 1.820312 0 1.203125 -0.488281 1.203125 -1.46875 C 1.203125 -1.832031 1.269531 -2.175781 1.40625 -2.5 C 1.550781 -2.832031 1.789062 -3.257812 2.125 -3.78125 L 11.125 -17.28125 L 3.453125 -17.28125 C 2.710938 -17.28125 2.175781 -17.457031 1.84375 -17.8125 C 1.507812 -18.175781 1.34375 -18.617188 1.34375 -19.140625 C 1.34375 -19.660156 1.507812 -20.097656 1.84375 -20.453125 C 2.175781 -20.816406 2.710938 -21 3.453125 -21 L 15.125 -21 C 16.363281 -21 16.984375 -20.507812 16.984375 -19.53125 C 16.984375 -19.164062 16.910156 -18.816406 16.765625 -18.484375 C 16.628906 -18.160156 16.390625 -17.738281 16.046875 -17.21875 L 7.015625 -3.71875 L 15.625 -3.71875 C 16.363281 -3.71875 16.898438 -3.535156 17.234375 -3.171875 C 17.566406 -2.816406 17.734375 -2.378906 17.734375 -1.859375 C 17.734375 -1.335938 17.566406 -0.894531 17.234375 -0.53125 C 16.898438 -0.175781 16.363281 0 15.625 0 Z M 3.0625 0 "/></g></g></g><g fill="#b8d1c1" fill-opacity="1"><g transform="translate(138.462651, 71.526792)"><g><path d="M 3.78125 0 C 2.25 0 1.484375 -0.601562 1.484375 -1.8125 C 1.484375 -2.257812 1.566406 -2.6875 1.734375 -3.09375 C 1.910156 -3.5 2.207031 -4.019531 2.625 -4.65625 L 13.734375 -21.3125 L 4.25 -21.3125 C 3.34375 -21.3125 2.6875 -21.53125 2.28125 -21.96875 C 1.875 -22.414062 1.671875 -22.960938 1.671875 -23.609375 C 1.671875 -24.242188 1.875 -24.785156 2.28125 -25.234375 C 2.6875 -25.679688 3.34375 -25.90625 4.25 -25.90625 L 18.640625 -25.90625 C 20.171875 -25.90625 20.9375 -25.300781 20.9375 -24.09375 C 20.9375 -23.644531 20.847656 -23.21875 20.671875 -22.8125 C 20.503906 -22.40625 20.210938 -21.878906 19.796875 -21.234375 L 8.65625 -4.59375 L 19.28125 -4.59375 C 20.1875 -4.59375 20.84375 -4.367188 21.25 -3.921875 C 21.65625 -3.472656 21.859375 -2.929688 21.859375 -2.296875 C 21.859375 -1.648438 21.65625 -1.101562 21.25 -0.65625 C 20.84375 -0.21875 20.1875 0 19.28125 0 Z M 3.78125 0 "/></g></g></g><g fill="#b8d1c1" fill-opacity="1"><g transform="translate(165.301796, 61.990382)"><g><path d="M 4.59375 0 C 2.726562 0 1.796875 -0.734375 1.796875 -2.203125 C 1.796875 -2.742188 1.898438 -3.257812 2.109375 -3.75 C 2.328125 -4.25 2.6875 -4.890625 3.1875 -5.671875 L 16.6875 -25.921875 L 5.171875 -25.921875 C 4.066406 -25.921875 3.265625 -26.191406 2.765625 -26.734375 C 2.273438 -27.273438 2.03125 -27.929688 2.03125 -28.703125 C 2.03125 -29.484375 2.273438 -30.144531 2.765625 -30.6875 C 3.265625 -31.226562 4.066406 -31.5 5.171875 -31.5 L 22.6875 -31.5 C 24.539062 -31.5 25.46875 -30.765625 25.46875 -29.296875 C 25.46875 -28.753906 25.363281 -28.234375 25.15625 -27.734375 C 24.945312 -27.242188 24.585938 -26.609375 24.078125 -25.828125 L 10.53125 -5.578125 L 23.4375 -5.578125 C 24.550781 -5.578125 25.351562 -5.304688 25.84375 -4.765625 C 26.34375 -4.222656 26.59375 -3.566406 26.59375 -2.796875 C 26.59375 -2.015625 26.34375 -1.351562 25.84375 -0.8125 C 25.351562 -0.269531 24.550781 0 23.4375 0 Z M 4.59375 0 "/></g></g></g></svg>