<svg xmlns="http://www.w3.org/2000/svg" xmlns:xlink="http://www.w3.org/1999/xlink" zoomAndPan="magnify" preserveAspectRatio="xMidYMid meet" version="1.0" viewBox="3.19 151.36 369.27 53.25"><defs><g/><clipPath id="fed30ea586"><path d="M 3.191406 151.355469 L 56.441406 151.355469 L 56.441406 204.605469 L 3.191406 204.605469 Z M 3.191406 151.355469 " clip-rule="nonzero"/></clipPath><clipPath id="4f50aa05ed"><path d="M 34 175 L 46.777344 175 L 46.777344 188 L 34 188 Z M 34 175 " clip-rule="nonzero"/></clipPath><clipPath id="3a577936c1"><path d="M 14 171.140625 L 44 171.140625 L 44 189.890625 L 14 189.890625 Z M 14 171.140625 " clip-rule="nonzero"/></clipPath></defs><g clip-path="url(#fed30ea586)"><path fill="#ffffff" d="M 56.441406 177.980469 C 56.441406 178.851562 56.398438 179.722656 56.3125 180.589844 C 56.226562 181.457031 56.097656 182.320312 55.929688 183.175781 C 55.757812 184.03125 55.546875 184.875 55.292969 185.710938 C 55.039062 186.542969 54.746094 187.363281 54.414062 188.167969 C 54.082031 188.976562 53.707031 189.761719 53.296875 190.53125 C 52.886719 191.300781 52.4375 192.046875 51.953125 192.773438 C 51.46875 193.496094 50.949219 194.199219 50.398438 194.871094 C 49.84375 195.546875 49.257812 196.191406 48.640625 196.808594 C 48.027344 197.425781 47.378906 198.007812 46.707031 198.5625 C 46.03125 199.117188 45.332031 199.632812 44.609375 200.117188 C 43.882812 200.601562 43.136719 201.050781 42.367188 201.460938 C 41.597656 201.871094 40.808594 202.246094 40.003906 202.578125 C 39.199219 202.914062 38.378906 203.207031 37.542969 203.460938 C 36.710938 203.710938 35.863281 203.925781 35.011719 204.09375 C 34.15625 204.265625 33.292969 204.390625 32.425781 204.476562 C 31.558594 204.5625 30.6875 204.605469 29.816406 204.605469 C 28.945312 204.605469 28.074219 204.5625 27.207031 204.476562 C 26.339844 204.390625 25.476562 204.265625 24.621094 204.09375 C 23.765625 203.925781 22.921875 203.710938 22.085938 203.460938 C 21.253906 203.207031 20.433594 202.914062 19.625 202.578125 C 18.820312 202.246094 18.035156 201.871094 17.265625 201.460938 C 16.496094 201.050781 15.75 200.601562 15.023438 200.117188 C 14.296875 199.632812 13.597656 199.117188 12.925781 198.5625 C 12.25 198.007812 11.605469 197.425781 10.988281 196.808594 C 10.371094 196.191406 9.789062 195.546875 9.234375 194.871094 C 8.679688 194.199219 8.160156 193.496094 7.675781 192.773438 C 7.191406 192.046875 6.746094 191.300781 6.335938 190.53125 C 5.921875 189.761719 5.550781 188.976562 5.21875 188.167969 C 4.882812 187.363281 4.589844 186.542969 4.335938 185.710938 C 4.082031 184.875 3.871094 184.03125 3.703125 183.175781 C 3.53125 182.320312 3.402344 181.457031 3.320312 180.589844 C 3.234375 179.722656 3.191406 178.851562 3.191406 177.980469 C 3.191406 177.109375 3.234375 176.238281 3.320312 175.371094 C 3.402344 174.503906 3.53125 173.640625 3.703125 172.785156 C 3.871094 171.929688 4.082031 171.085938 4.335938 170.25 C 4.589844 169.417969 4.882812 168.597656 5.21875 167.792969 C 5.550781 166.984375 5.921875 166.199219 6.335938 165.429688 C 6.746094 164.660156 7.191406 163.914062 7.675781 163.1875 C 8.160156 162.464844 8.679688 161.765625 9.234375 161.089844 C 9.789062 160.414062 10.371094 159.769531 10.988281 159.152344 C 11.605469 158.539062 12.25 157.953125 12.925781 157.398438 C 13.597656 156.847656 14.296875 156.328125 15.023438 155.84375 C 15.75 155.359375 16.496094 154.910156 17.265625 154.5 C 18.035156 154.089844 18.820312 153.714844 19.625 153.382812 C 20.433594 153.046875 21.253906 152.753906 22.085938 152.503906 C 22.921875 152.25 23.765625 152.039062 24.621094 151.867188 C 25.476562 151.695312 26.339844 151.570312 27.207031 151.484375 C 28.074219 151.398438 28.945312 151.355469 29.816406 151.355469 C 30.6875 151.355469 31.558594 151.398438 32.425781 151.484375 C 33.292969 151.570312 34.15625 151.695312 35.011719 151.867188 C 35.863281 152.039062 36.710938 152.25 37.542969 152.503906 C 38.378906 152.753906 39.199219 153.046875 40.003906 153.382812 C 40.808594 153.714844 41.597656 154.089844 42.367188 154.5 C 43.136719 154.910156 43.882812 155.359375 44.609375 155.84375 C 45.332031 156.328125 46.03125 156.847656 46.707031 157.398438 C 47.378906 157.953125 48.027344 158.539062 48.640625 159.152344 C 49.257812 159.769531 49.84375 160.414062 50.398438 161.089844 C 50.949219 161.765625 51.46875 162.464844 51.953125 163.1875 C 52.4375 163.914062 52.886719 164.660156 53.296875 165.429688 C 53.707031 166.199219 54.082031 166.984375 54.414062 167.792969 C 54.746094 168.597656 55.039062 169.417969 55.292969 170.25 C 55.546875 171.085938 55.757812 171.929688 55.929688 172.785156 C 56.097656 173.640625 56.226562 174.503906 56.3125 175.371094 C 56.398438 176.238281 56.441406 177.109375 56.441406 177.980469 Z M 56.441406 177.980469 " fill-opacity="1" fill-rule="nonzero"/></g><g clip-path="url(#4f50aa05ed)"><path fill="#b8d1c1" d="M 42.976562 186.648438 C 43.375 187.128906 43.949219 187.378906 44.527344 187.378906 C 44.972656 187.378906 45.425781 187.230469 45.796875 186.921875 C 46.652344 186.21875 46.773438 184.949219 46.070312 184.09375 L 39.632812 176.246094 C 39.257812 175.789062 38.703125 175.523438 38.113281 175.515625 C 37.527344 175.5 36.960938 175.757812 36.574219 176.207031 L 34.464844 178.636719 L 34.519531 184.421875 C 34.519531 184.523438 34.515625 184.625 34.503906 184.722656 L 36.503906 182.410156 L 38.042969 180.632812 Z M 42.976562 186.648438 " fill-opacity="1" fill-rule="nonzero"/></g><g clip-path="url(#3a577936c1)"><path fill="#b8d1c1" d="M 33.023438 186.226562 C 33.695312 185.910156 34.160156 185.222656 34.152344 184.425781 L 34.089844 177.789062 L 34.085938 177.339844 L 35.390625 177.011719 L 36.296875 175.964844 C 36.746094 175.441406 37.390625 175.144531 38.066406 175.144531 L 38.121094 175.144531 C 38.761719 175.152344 39.367188 175.425781 39.808594 175.894531 L 42.441406 175.226562 C 43.492188 174.960938 44.128906 173.890625 43.863281 172.835938 C 43.597656 171.785156 42.53125 171.144531 41.480469 171.410156 L 31.628906 173.902344 C 31.613281 173.90625 31.597656 173.910156 31.582031 173.914062 C 31.542969 173.925781 31.503906 173.9375 31.46875 173.949219 C 31.441406 173.960938 31.417969 173.96875 31.390625 173.980469 C 31.355469 173.992188 31.324219 174.007812 31.292969 174.023438 C 31.261719 174.035156 31.234375 174.050781 31.207031 174.0625 C 31.179688 174.078125 31.152344 174.09375 31.125 174.109375 C 31.09375 174.125 31.066406 174.144531 31.035156 174.164062 C 31.011719 174.179688 30.992188 174.195312 30.96875 174.210938 C 30.9375 174.230469 30.910156 174.253906 30.878906 174.277344 C 30.859375 174.292969 30.839844 174.308594 30.820312 174.328125 C 30.792969 174.351562 30.765625 174.375 30.742188 174.402344 C 30.722656 174.421875 30.703125 174.441406 30.683594 174.460938 C 30.660156 174.484375 30.636719 174.511719 30.613281 174.535156 C 30.59375 174.558594 30.578125 174.582031 30.558594 174.605469 C 30.539062 174.632812 30.519531 174.65625 30.503906 174.683594 C 30.484375 174.710938 30.464844 174.738281 30.449219 174.765625 C 30.433594 174.789062 30.417969 174.8125 30.402344 174.839844 C 30.386719 174.871094 30.371094 174.902344 30.355469 174.933594 C 30.34375 174.957031 30.332031 174.980469 30.320312 175.007812 C 30.304688 175.039062 30.292969 175.070312 30.277344 175.105469 C 30.269531 175.132812 30.257812 175.160156 30.25 175.1875 C 30.238281 175.21875 30.230469 175.25 30.21875 175.285156 C 30.210938 175.316406 30.203125 175.347656 30.195312 175.378906 C 30.191406 175.40625 30.183594 175.4375 30.179688 175.464844 C 30.171875 175.503906 30.167969 175.539062 30.164062 175.578125 C 30.160156 175.605469 30.15625 175.628906 30.15625 175.65625 C 30.152344 175.695312 30.148438 175.738281 30.148438 175.78125 C 30.148438 175.796875 30.148438 175.8125 30.148438 175.828125 L 30.199219 181.316406 C 27.839844 181.722656 25.226562 181.539062 23.320312 181.476562 C 23.292969 181.472656 23.265625 181.472656 23.234375 181.46875 C 23.296875 180.917969 23.355469 180.277344 23.394531 179.628906 C 23.527344 177.3125 23.4375 175.09375 21.882812 174.582031 C 20.535156 174.132812 19.449219 175.46875 19.09375 175.90625 C 18.914062 176.128906 18.726562 176.382812 18.527344 176.667969 C 19.414062 176.785156 20.226562 177.195312 20.84375 177.835938 C 20.851562 177.828125 20.855469 177.820312 20.863281 177.8125 C 20.863281 177.824219 20.863281 177.839844 20.863281 177.855469 C 21.050781 178.050781 21.21875 178.265625 21.367188 178.503906 C 21.929688 179.40625 22.109375 180.472656 21.871094 181.511719 C 21.632812 182.546875 21.007812 183.429688 20.105469 183.996094 C 19.769531 184.207031 19.40625 184.363281 19.027344 184.464844 C 18.609375 184.980469 18.191406 185.46875 17.804688 185.890625 C 17.921875 185.523438 18.070312 185.09375 18.25 184.59375 C 18.167969 184.597656 18.085938 184.601562 18.003906 184.601562 C 17.1875 184.601562 16.417969 184.355469 15.769531 183.914062 C 15.367188 185.035156 15.09375 185.949219 14.933594 186.675781 C 14.796875 187.308594 14.429688 188.992188 15.640625 189.675781 C 15.902344 189.824219 16.164062 189.890625 16.4375 189.890625 C 17.441406 189.890625 18.535156 188.929688 19.871094 187.429688 C 20.242188 187.015625 20.597656 186.59375 20.902344 186.21875 C 21.445312 186.710938 22.1875 187.097656 23.148438 187.261719 C 26.511719 187.824219 28.625 187.714844 32.070312 186.734375 C 32.414062 186.609375 32.707031 186.464844 32.957031 186.308594 C 32.980469 186.296875 33 186.285156 33.023438 186.273438 Z M 33.023438 186.226562 " fill-opacity="1" fill-rule="nonzero"/></g><path fill="#b8d1c1" d="M 21.054688 178.699219 C 21.308594 179.105469 21.476562 179.542969 21.554688 180.015625 C 21.632812 180.488281 21.621094 180.960938 21.511719 181.425781 C 21.40625 181.894531 21.210938 182.324219 20.933594 182.714844 C 20.65625 183.105469 20.316406 183.425781 19.910156 183.679688 C 19.507812 183.933594 19.066406 184.101562 18.597656 184.179688 C 18.125 184.261719 17.65625 184.246094 17.191406 184.140625 C 16.726562 184.03125 16.296875 183.839844 15.910156 183.558594 C 15.519531 183.28125 15.199219 182.941406 14.945312 182.535156 C 14.691406 182.128906 14.523438 181.6875 14.445312 181.214844 C 14.367188 180.742188 14.378906 180.273438 14.488281 179.804688 C 14.59375 179.335938 14.785156 178.910156 15.0625 178.519531 C 15.339844 178.128906 15.683594 177.804688 16.089844 177.550781 C 16.492188 177.296875 16.929688 177.128906 17.402344 177.050781 C 17.875 176.972656 18.34375 176.984375 18.808594 177.09375 C 19.273438 177.199219 19.703125 177.394531 20.089844 177.671875 C 20.480469 177.949219 20.800781 178.292969 21.054688 178.699219 Z M 21.054688 178.699219 " fill-opacity="1" fill-rule="nonzero"/><g fill="#ffffff" fill-opacity="1"><g transform="translate(62.280989, 189.033799)"><g><path d="M 23.21875 -14.171875 L 18.578125 -2.03125 C 18.242188 -1.164062 17.851562 -0.546875 17.40625 -0.171875 C 16.96875 0.203125 16.363281 0.390625 15.59375 0.390625 C 14.820312 0.390625 14.21875 0.203125 13.78125 -0.171875 C 13.351562 -0.546875 12.972656 -1.164062 12.640625 -2.03125 L 8 -14.171875 L 7.390625 -2.484375 C 7.335938 -1.410156 7.035156 -0.660156 6.484375 -0.234375 C 5.941406 0.179688 5.335938 0.390625 4.671875 0.390625 C 4.335938 0.390625 4.003906 0.335938 3.671875 0.234375 C 3.347656 0.128906 3.054688 -0.03125 2.796875 -0.25 C 2.535156 -0.46875 2.328125 -0.757812 2.171875 -1.125 C 2.023438 -1.5 1.96875 -1.953125 2 -2.484375 L 3.140625 -23.59375 C 3.210938 -24.976562 3.550781 -25.925781 4.15625 -26.4375 C 4.757812 -26.945312 5.503906 -27.203125 6.390625 -27.203125 C 6.828125 -27.203125 7.210938 -27.148438 7.546875 -27.046875 C 7.878906 -26.941406 8.191406 -26.75 8.484375 -26.46875 C 8.773438 -26.1875 9.054688 -25.800781 9.328125 -25.3125 C 9.597656 -24.832031 9.875 -24.222656 10.15625 -23.484375 L 15.59375 -9.078125 L 21.078125 -23.484375 C 21.359375 -24.222656 21.628906 -24.832031 21.890625 -25.3125 C 22.160156 -25.800781 22.441406 -26.1875 22.734375 -26.46875 C 23.023438 -26.75 23.34375 -26.941406 23.6875 -27.046875 C 24.039062 -27.148438 24.421875 -27.203125 24.828125 -27.203125 C 25.722656 -27.203125 26.46875 -26.945312 27.0625 -26.4375 C 27.664062 -25.925781 28.003906 -24.976562 28.078125 -23.59375 L 29.234375 -2.484375 C 29.253906 -1.953125 29.1875 -1.5 29.03125 -1.125 C 28.882812 -0.757812 28.679688 -0.46875 28.421875 -0.25 C 28.171875 -0.03125 27.878906 0.128906 27.546875 0.234375 C 27.210938 0.335938 26.878906 0.390625 26.546875 0.390625 C 25.878906 0.390625 25.269531 0.179688 24.71875 -0.234375 C 24.175781 -0.660156 23.878906 -1.410156 23.828125 -2.484375 Z M 23.21875 -14.171875 "/></g></g></g><g fill="#ffffff" fill-opacity="1"><g transform="translate(91.475593, 189.033799)"><g><path d="M 12.375 -4.171875 C 13.039062 -4.171875 13.640625 -4.234375 14.171875 -4.359375 C 14.710938 -4.492188 15.195312 -4.628906 15.625 -4.765625 C 16.0625 -4.910156 16.457031 -5.046875 16.8125 -5.171875 C 17.175781 -5.296875 17.523438 -5.359375 17.859375 -5.359375 C 18.441406 -5.359375 18.914062 -5.191406 19.28125 -4.859375 C 19.65625 -4.535156 19.84375 -4.078125 19.84375 -3.484375 C 19.84375 -2.691406 19.546875 -2.046875 18.953125 -1.546875 C 18.367188 -1.046875 17.675781 -0.648438 16.875 -0.359375 C 16.070312 -0.0664062 15.242188 0.128906 14.390625 0.234375 C 13.535156 0.335938 12.828125 0.390625 12.265625 0.390625 C 10.628906 0.390625 9.160156 0.160156 7.859375 -0.296875 C 6.554688 -0.765625 5.453125 -1.425781 4.546875 -2.28125 C 3.640625 -3.132812 2.941406 -4.179688 2.453125 -5.421875 C 1.960938 -6.660156 1.71875 -8.046875 1.71875 -9.578125 C 1.71875 -11.085938 1.914062 -12.445312 2.3125 -13.65625 C 2.707031 -14.875 3.304688 -15.921875 4.109375 -16.796875 C 4.921875 -17.679688 5.921875 -18.359375 7.109375 -18.828125 C 8.296875 -19.304688 9.679688 -19.546875 11.265625 -19.546875 C 12.773438 -19.546875 14.082031 -19.320312 15.1875 -18.875 C 16.300781 -18.425781 17.226562 -17.820312 17.96875 -17.0625 C 18.707031 -16.3125 19.257812 -15.441406 19.625 -14.453125 C 20 -13.472656 20.1875 -12.4375 20.1875 -11.34375 C 20.1875 -9.957031 19.847656 -8.984375 19.171875 -8.421875 C 18.492188 -7.859375 17.46875 -7.578125 16.09375 -7.578125 L 7.3125 -7.578125 C 7.59375 -6.515625 8.132812 -5.679688 8.9375 -5.078125 C 9.75 -4.472656 10.894531 -4.171875 12.375 -4.171875 Z M 11.265625 -14.984375 C 10.242188 -14.984375 9.421875 -14.71875 8.796875 -14.1875 C 8.171875 -13.664062 7.71875 -12.929688 7.4375 -11.984375 L 14.75 -11.984375 C 14.675781 -13.035156 14.316406 -13.796875 13.671875 -14.265625 C 13.035156 -14.742188 12.234375 -14.984375 11.265625 -14.984375 Z M 11.265625 -14.984375 "/></g></g></g><g fill="#ffffff" fill-opacity="1"><g transform="translate(111.398237, 189.033799)"><g><path d="M 7.65625 -2.484375 C 7.65625 -1.953125 7.578125 -1.5 7.421875 -1.125 C 7.273438 -0.757812 7.070312 -0.46875 6.8125 -0.25 C 6.5625 -0.03125 6.269531 0.128906 5.9375 0.234375 C 5.601562 0.335938 5.269531 0.390625 4.9375 0.390625 C 4.28125 0.390625 3.671875 0.179688 3.109375 -0.234375 C 2.546875 -0.660156 2.265625 -1.410156 2.265625 -2.484375 L 2.265625 -16.671875 C 2.265625 -17.742188 2.546875 -18.488281 3.109375 -18.90625 C 3.671875 -19.332031 4.28125 -19.546875 4.9375 -19.546875 C 5.269531 -19.546875 5.601562 -19.492188 5.9375 -19.390625 C 6.269531 -19.285156 6.5625 -19.125 6.8125 -18.90625 C 7.070312 -18.6875 7.273438 -18.390625 7.421875 -18.015625 C 7.578125 -17.648438 7.65625 -17.203125 7.65625 -16.671875 C 8.269531 -17.796875 9.023438 -18.554688 9.921875 -18.953125 C 10.816406 -19.347656 11.835938 -19.546875 12.984375 -19.546875 C 14.898438 -19.546875 16.394531 -18.957031 17.46875 -17.78125 C 18.539062 -16.601562 19.078125 -14.773438 19.078125 -12.296875 L 19.078125 -2.484375 C 19.078125 -1.953125 19 -1.5 18.84375 -1.125 C 18.695312 -0.757812 18.492188 -0.46875 18.234375 -0.25 C 17.984375 -0.03125 17.691406 0.128906 17.359375 0.234375 C 17.023438 0.335938 16.691406 0.390625 16.359375 0.390625 C 15.691406 0.390625 15.078125 0.179688 14.515625 -0.234375 C 13.953125 -0.660156 13.671875 -1.410156 13.671875 -2.484375 L 13.671875 -12.1875 C 13.671875 -13.15625 13.425781 -13.863281 12.9375 -14.3125 C 12.457031 -14.757812 11.8125 -14.984375 11 -14.984375 C 10 -14.984375 9.191406 -14.519531 8.578125 -13.59375 C 7.960938 -12.675781 7.65625 -11.132812 7.65625 -8.96875 Z M 7.65625 -2.484375 "/></g></g></g><g fill="#ffffff" fill-opacity="1"><g transform="translate(130.707865, 189.033799)"><g><path d="M 3.25 -22.796875 C 3.25 -23.867188 3.53125 -24.613281 4.09375 -25.03125 C 4.65625 -25.457031 5.269531 -25.671875 5.9375 -25.671875 C 6.269531 -25.671875 6.601562 -25.617188 6.9375 -25.515625 C 7.269531 -25.410156 7.5625 -25.25 7.8125 -25.03125 C 8.070312 -24.820312 8.273438 -24.53125 8.421875 -24.15625 C 8.578125 -23.78125 8.65625 -23.328125 8.65625 -22.796875 L 8.65625 -19.15625 L 11.15625 -19.15625 C 12.09375 -19.15625 12.765625 -18.9375 13.171875 -18.5 C 13.585938 -18.070312 13.796875 -17.523438 13.796875 -16.859375 C 13.796875 -16.191406 13.585938 -15.644531 13.171875 -15.21875 C 12.765625 -14.800781 12.09375 -14.59375 11.15625 -14.59375 L 8.65625 -14.59375 L 8.65625 -7.046875 C 8.65625 -5.972656 8.8125 -5.242188 9.125 -4.859375 C 9.445312 -4.484375 9.929688 -4.296875 10.578125 -4.296875 C 11.003906 -4.296875 11.34375 -4.34375 11.59375 -4.4375 C 11.851562 -4.539062 12.175781 -4.59375 12.5625 -4.59375 C 13 -4.59375 13.367188 -4.4375 13.671875 -4.125 C 13.984375 -3.820312 14.140625 -3.390625 14.140625 -2.828125 C 14.140625 -2.191406 13.984375 -1.660156 13.671875 -1.234375 C 13.367188 -0.816406 12.976562 -0.488281 12.5 -0.25 C 12.03125 -0.0078125 11.507812 0.15625 10.9375 0.25 C 10.363281 0.34375 9.796875 0.390625 9.234375 0.390625 C 7.441406 0.390625 5.992188 -0.148438 4.890625 -1.234375 C 3.796875 -2.328125 3.25 -4.164062 3.25 -6.75 L 3.25 -14.59375 L 2.953125 -14.59375 C 2.003906 -14.59375 1.328125 -14.800781 0.921875 -15.21875 C 0.515625 -15.644531 0.3125 -16.191406 0.3125 -16.859375 C 0.3125 -17.523438 0.515625 -18.070312 0.921875 -18.5 C 1.328125 -18.9375 2.003906 -19.15625 2.953125 -19.15625 L 3.25 -19.15625 Z M 3.25 -22.796875 "/></g></g></g><g fill="#ffffff" fill-opacity="1"><g transform="translate(143.197622, 189.033799)"><g><path d="M 17.78125 -6.671875 C 17.78125 -5.953125 17.796875 -5.351562 17.828125 -4.875 C 17.867188 -4.40625 17.921875 -4 17.984375 -3.65625 C 18.046875 -3.3125 18.097656 -3.003906 18.140625 -2.734375 C 18.179688 -2.472656 18.203125 -2.1875 18.203125 -1.875 C 18.203125 -1.238281 17.988281 -0.703125 17.5625 -0.265625 C 17.144531 0.171875 16.523438 0.390625 15.703125 0.390625 C 14.835938 0.390625 14.140625 0.160156 13.609375 -0.296875 C 13.085938 -0.765625 12.675781 -1.421875 12.375 -2.265625 C 11.789062 -1.441406 11.035156 -0.789062 10.109375 -0.3125 C 9.191406 0.15625 8.257812 0.390625 7.3125 0.390625 C 5.25 0.390625 3.671875 -0.140625 2.578125 -1.203125 C 1.492188 -2.265625 0.953125 -3.789062 0.953125 -5.78125 C 0.953125 -6.9375 1.160156 -7.890625 1.578125 -8.640625 C 2.003906 -9.390625 2.582031 -9.984375 3.3125 -10.421875 C 4.039062 -10.859375 4.890625 -11.160156 5.859375 -11.328125 C 6.828125 -11.492188 7.847656 -11.578125 8.921875 -11.578125 C 9.515625 -11.578125 10.101562 -11.550781 10.6875 -11.5 C 11.28125 -11.445312 11.84375 -11.378906 12.375 -11.296875 L 12.375 -12.71875 C 12.375 -13.507812 12.148438 -14.082031 11.703125 -14.4375 C 11.253906 -14.800781 10.660156 -14.984375 9.921875 -14.984375 C 9.410156 -14.984375 8.972656 -14.882812 8.609375 -14.6875 C 8.253906 -14.5 7.910156 -14.265625 7.578125 -13.984375 C 7.253906 -13.703125 6.898438 -13.453125 6.515625 -13.234375 C 6.128906 -13.015625 5.601562 -12.90625 4.9375 -12.90625 C 4.125 -12.90625 3.472656 -13.101562 2.984375 -13.5 C 2.503906 -13.894531 2.265625 -14.390625 2.265625 -14.984375 C 2.265625 -15.742188 2.484375 -16.410156 2.921875 -16.984375 C 3.367188 -17.566406 3.953125 -18.039062 4.671875 -18.40625 C 5.390625 -18.78125 6.179688 -19.0625 7.046875 -19.25 C 7.921875 -19.445312 8.789062 -19.546875 9.65625 -19.546875 C 10.726562 -19.546875 11.753906 -19.410156 12.734375 -19.140625 C 13.722656 -18.867188 14.585938 -18.457031 15.328125 -17.90625 C 16.066406 -17.363281 16.660156 -16.675781 17.109375 -15.84375 C 17.554688 -15.007812 17.78125 -14.03125 17.78125 -12.90625 Z M 10 -7.8125 C 8.90625 -7.8125 8.023438 -7.671875 7.359375 -7.390625 C 6.691406 -7.109375 6.359375 -6.5625 6.359375 -5.75 C 6.359375 -5.207031 6.539062 -4.804688 6.90625 -4.546875 C 7.28125 -4.296875 7.800781 -4.171875 8.46875 -4.171875 C 8.90625 -4.171875 9.351562 -4.238281 9.8125 -4.375 C 10.269531 -4.519531 10.6875 -4.71875 11.0625 -4.96875 C 11.445312 -5.226562 11.757812 -5.53125 12 -5.875 C 12.25 -6.21875 12.375 -6.597656 12.375 -7.015625 C 12.375 -7.265625 12.207031 -7.457031 11.875 -7.59375 C 11.539062 -7.738281 10.914062 -7.8125 10 -7.8125 Z M 10 -7.8125 "/></g></g></g><g fill="#ffffff" fill-opacity="1"><g transform="translate(161.204571, 189.033799)"><g><path d="M 7.65625 -6.203125 C 7.65625 -5.003906 8.078125 -4.40625 8.921875 -4.40625 C 10.359375 -4.40625 11.078125 -3.765625 11.078125 -2.484375 C 11.078125 -1.390625 10.703125 -0.632812 9.953125 -0.21875 C 9.210938 0.1875 8.285156 0.390625 7.171875 0.390625 C 6.472656 0.390625 5.820312 0.28125 5.21875 0.0625 C 4.625 -0.15625 4.101562 -0.503906 3.65625 -0.984375 C 3.207031 -1.472656 2.863281 -2.097656 2.625 -2.859375 C 2.382812 -3.628906 2.265625 -4.566406 2.265625 -5.671875 L 2.265625 -25.484375 C 2.265625 -26.554688 2.546875 -27.300781 3.109375 -27.71875 C 3.671875 -28.132812 4.28125 -28.34375 4.9375 -28.34375 C 5.269531 -28.34375 5.601562 -28.289062 5.9375 -28.1875 C 6.269531 -28.09375 6.5625 -27.9375 6.8125 -27.71875 C 7.070312 -27.5 7.273438 -27.203125 7.421875 -26.828125 C 7.578125 -26.460938 7.65625 -26.015625 7.65625 -25.484375 Z M 7.65625 -6.203125 "/></g></g></g><g fill="#ffffff" fill-opacity="1"><g transform="translate(170.859102, 189.033799)"><g/></g></g><g fill="#ffffff" fill-opacity="1"><g transform="translate(180.705195, 189.033799)"><g><path d="M 2.265625 -24.328125 C 2.265625 -25.398438 2.546875 -26.144531 3.109375 -26.5625 C 3.671875 -26.988281 4.28125 -27.203125 4.9375 -27.203125 C 5.269531 -27.203125 5.601562 -27.148438 5.9375 -27.046875 C 6.269531 -26.941406 6.5625 -26.78125 6.8125 -26.5625 C 7.070312 -26.351562 7.273438 -26.0625 7.421875 -25.6875 C 7.578125 -25.320312 7.65625 -24.867188 7.65625 -24.328125 L 7.65625 -15.328125 L 18.125 -15.328125 L 18.125 -24.328125 C 18.125 -25.398438 18.40625 -26.144531 18.96875 -26.5625 C 19.53125 -26.988281 20.140625 -27.203125 20.796875 -27.203125 C 21.128906 -27.203125 21.460938 -27.148438 21.796875 -27.046875 C 22.128906 -26.941406 22.421875 -26.78125 22.671875 -26.5625 C 22.929688 -26.351562 23.140625 -26.0625 23.296875 -25.6875 C 23.453125 -25.320312 23.53125 -24.867188 23.53125 -24.328125 L 23.53125 -2.484375 C 23.53125 -1.953125 23.453125 -1.5 23.296875 -1.125 C 23.140625 -0.757812 22.929688 -0.46875 22.671875 -0.25 C 22.421875 -0.03125 22.128906 0.128906 21.796875 0.234375 C 21.460938 0.335938 21.128906 0.390625 20.796875 0.390625 C 20.140625 0.390625 19.53125 0.179688 18.96875 -0.234375 C 18.40625 -0.660156 18.125 -1.410156 18.125 -2.484375 L 18.125 -10.765625 L 7.65625 -10.765625 L 7.65625 -2.484375 C 7.65625 -1.953125 7.578125 -1.5 7.421875 -1.125 C 7.273438 -0.757812 7.070312 -0.46875 6.8125 -0.25 C 6.5625 -0.03125 6.269531 0.128906 5.9375 0.234375 C 5.601562 0.335938 5.269531 0.390625 4.9375 0.390625 C 4.28125 0.390625 3.671875 0.179688 3.109375 -0.234375 C 2.546875 -0.660156 2.265625 -1.410156 2.265625 -2.484375 Z M 2.265625 -24.328125 "/></g></g></g><g fill="#ffffff" fill-opacity="1"><g transform="translate(204.459223, 189.033799)"><g><path d="M 12.375 -4.171875 C 13.039062 -4.171875 13.640625 -4.234375 14.171875 -4.359375 C 14.710938 -4.492188 15.195312 -4.628906 15.625 -4.765625 C 16.0625 -4.910156 16.457031 -5.046875 16.8125 -5.171875 C 17.175781 -5.296875 17.523438 -5.359375 17.859375 -5.359375 C 18.441406 -5.359375 18.914062 -5.191406 19.28125 -4.859375 C 19.65625 -4.535156 19.84375 -4.078125 19.84375 -3.484375 C 19.84375 -2.691406 19.546875 -2.046875 18.953125 -1.546875 C 18.367188 -1.046875 17.675781 -0.648438 16.875 -0.359375 C 16.070312 -0.0664062 15.242188 0.128906 14.390625 0.234375 C 13.535156 0.335938 12.828125 0.390625 12.265625 0.390625 C 10.628906 0.390625 9.160156 0.160156 7.859375 -0.296875 C 6.554688 -0.765625 5.453125 -1.425781 4.546875 -2.28125 C 3.640625 -3.132812 2.941406 -4.179688 2.453125 -5.421875 C 1.960938 -6.660156 1.71875 -8.046875 1.71875 -9.578125 C 1.71875 -11.085938 1.914062 -12.445312 2.3125 -13.65625 C 2.707031 -14.875 3.304688 -15.921875 4.109375 -16.796875 C 4.921875 -17.679688 5.921875 -18.359375 7.109375 -18.828125 C 8.296875 -19.304688 9.679688 -19.546875 11.265625 -19.546875 C 12.773438 -19.546875 14.082031 -19.320312 15.1875 -18.875 C 16.300781 -18.425781 17.226562 -17.820312 17.96875 -17.0625 C 18.707031 -16.3125 19.257812 -15.441406 19.625 -14.453125 C 20 -13.472656 20.1875 -12.4375 20.1875 -11.34375 C 20.1875 -9.957031 19.847656 -8.984375 19.171875 -8.421875 C 18.492188 -7.859375 17.46875 -7.578125 16.09375 -7.578125 L 7.3125 -7.578125 C 7.59375 -6.515625 8.132812 -5.679688 8.9375 -5.078125 C 9.75 -4.472656 10.894531 -4.171875 12.375 -4.171875 Z M 11.265625 -14.984375 C 10.242188 -14.984375 9.421875 -14.71875 8.796875 -14.1875 C 8.171875 -13.664062 7.71875 -12.929688 7.4375 -11.984375 L 14.75 -11.984375 C 14.675781 -13.035156 14.316406 -13.796875 13.671875 -14.265625 C 13.035156 -14.742188 12.234375 -14.984375 11.265625 -14.984375 Z M 11.265625 -14.984375 "/></g></g></g><g fill="#ffffff" fill-opacity="1"><g transform="translate(224.381873, 189.033799)"><g><path d="M 17.78125 -6.671875 C 17.78125 -5.953125 17.796875 -5.351562 17.828125 -4.875 C 17.867188 -4.40625 17.921875 -4 17.984375 -3.65625 C 18.046875 -3.3125 18.097656 -3.003906 18.140625 -2.734375 C 18.179688 -2.472656 18.203125 -2.1875 18.203125 -1.875 C 18.203125 -1.238281 17.988281 -0.703125 17.5625 -0.265625 C 17.144531 0.171875 16.523438 0.390625 15.703125 0.390625 C 14.835938 0.390625 14.140625 0.160156 13.609375 -0.296875 C 13.085938 -0.765625 12.675781 -1.421875 12.375 -2.265625 C 11.789062 -1.441406 11.035156 -0.789062 10.109375 -0.3125 C 9.191406 0.15625 8.257812 0.390625 7.3125 0.390625 C 5.25 0.390625 3.671875 -0.140625 2.578125 -1.203125 C 1.492188 -2.265625 0.953125 -3.789062 0.953125 -5.78125 C 0.953125 -6.9375 1.160156 -7.890625 1.578125 -8.640625 C 2.003906 -9.390625 2.582031 -9.984375 3.3125 -10.421875 C 4.039062 -10.859375 4.890625 -11.160156 5.859375 -11.328125 C 6.828125 -11.492188 7.847656 -11.578125 8.921875 -11.578125 C 9.515625 -11.578125 10.101562 -11.550781 10.6875 -11.5 C 11.28125 -11.445312 11.84375 -11.378906 12.375 -11.296875 L 12.375 -12.71875 C 12.375 -13.507812 12.148438 -14.082031 11.703125 -14.4375 C 11.253906 -14.800781 10.660156 -14.984375 9.921875 -14.984375 C 9.410156 -14.984375 8.972656 -14.882812 8.609375 -14.6875 C 8.253906 -14.5 7.910156 -14.265625 7.578125 -13.984375 C 7.253906 -13.703125 6.898438 -13.453125 6.515625 -13.234375 C 6.128906 -13.015625 5.601562 -12.90625 4.9375 -12.90625 C 4.125 -12.90625 3.472656 -13.101562 2.984375 -13.5 C 2.503906 -13.894531 2.265625 -14.390625 2.265625 -14.984375 C 2.265625 -15.742188 2.484375 -16.410156 2.921875 -16.984375 C 3.367188 -17.566406 3.953125 -18.039062 4.671875 -18.40625 C 5.390625 -18.78125 6.179688 -19.0625 7.046875 -19.25 C 7.921875 -19.445312 8.789062 -19.546875 9.65625 -19.546875 C 10.726562 -19.546875 11.753906 -19.410156 12.734375 -19.140625 C 13.722656 -18.867188 14.585938 -18.457031 15.328125 -17.90625 C 16.066406 -17.363281 16.660156 -16.675781 17.109375 -15.84375 C 17.554688 -15.007812 17.78125 -14.03125 17.78125 -12.90625 Z M 10 -7.8125 C 8.90625 -7.8125 8.023438 -7.671875 7.359375 -7.390625 C 6.691406 -7.109375 6.359375 -6.5625 6.359375 -5.75 C 6.359375 -5.207031 6.539062 -4.804688 6.90625 -4.546875 C 7.28125 -4.296875 7.800781 -4.171875 8.46875 -4.171875 C 8.90625 -4.171875 9.351562 -4.238281 9.8125 -4.375 C 10.269531 -4.519531 10.6875 -4.71875 11.0625 -4.96875 C 11.445312 -5.226562 11.757812 -5.53125 12 -5.875 C 12.25 -6.21875 12.375 -6.597656 12.375 -7.015625 C 12.375 -7.265625 12.207031 -7.457031 11.875 -7.59375 C 11.539062 -7.738281 10.914062 -7.8125 10 -7.8125 Z M 10 -7.8125 "/></g></g></g><g fill="#ffffff" fill-opacity="1"><g transform="translate(242.388816, 189.033799)"><g><path d="M 7.65625 -6.203125 C 7.65625 -5.003906 8.078125 -4.40625 8.921875 -4.40625 C 10.359375 -4.40625 11.078125 -3.765625 11.078125 -2.484375 C 11.078125 -1.390625 10.703125 -0.632812 9.953125 -0.21875 C 9.210938 0.1875 8.285156 0.390625 7.171875 0.390625 C 6.472656 0.390625 5.820312 0.28125 5.21875 0.0625 C 4.625 -0.15625 4.101562 -0.503906 3.65625 -0.984375 C 3.207031 -1.472656 2.863281 -2.097656 2.625 -2.859375 C 2.382812 -3.628906 2.265625 -4.566406 2.265625 -5.671875 L 2.265625 -25.484375 C 2.265625 -26.554688 2.546875 -27.300781 3.109375 -27.71875 C 3.671875 -28.132812 4.28125 -28.34375 4.9375 -28.34375 C 5.269531 -28.34375 5.601562 -28.289062 5.9375 -28.1875 C 6.269531 -28.09375 6.5625 -27.9375 6.8125 -27.71875 C 7.070312 -27.5 7.273438 -27.203125 7.421875 -26.828125 C 7.578125 -26.460938 7.65625 -26.015625 7.65625 -25.484375 Z M 7.65625 -6.203125 "/></g></g></g><g fill="#ffffff" fill-opacity="1"><g transform="translate(252.043341, 189.033799)"><g><path d="M 3.25 -22.796875 C 3.25 -23.867188 3.53125 -24.613281 4.09375 -25.03125 C 4.65625 -25.457031 5.269531 -25.671875 5.9375 -25.671875 C 6.269531 -25.671875 6.601562 -25.617188 6.9375 -25.515625 C 7.269531 -25.410156 7.5625 -25.25 7.8125 -25.03125 C 8.070312 -24.820312 8.273438 -24.53125 8.421875 -24.15625 C 8.578125 -23.78125 8.65625 -23.328125 8.65625 -22.796875 L 8.65625 -19.15625 L 11.15625 -19.15625 C 12.09375 -19.15625 12.765625 -18.9375 13.171875 -18.5 C 13.585938 -18.070312 13.796875 -17.523438 13.796875 -16.859375 C 13.796875 -16.191406 13.585938 -15.644531 13.171875 -15.21875 C 12.765625 -14.800781 12.09375 -14.59375 11.15625 -14.59375 L 8.65625 -14.59375 L 8.65625 -7.046875 C 8.65625 -5.972656 8.8125 -5.242188 9.125 -4.859375 C 9.445312 -4.484375 9.929688 -4.296875 10.578125 -4.296875 C 11.003906 -4.296875 11.34375 -4.34375 11.59375 -4.4375 C 11.851562 -4.539062 12.175781 -4.59375 12.5625 -4.59375 C 13 -4.59375 13.367188 -4.4375 13.671875 -4.125 C 13.984375 -3.820312 14.140625 -3.390625 14.140625 -2.828125 C 14.140625 -2.191406 13.984375 -1.660156 13.671875 -1.234375 C 13.367188 -0.816406 12.976562 -0.488281 12.5 -0.25 C 12.03125 -0.0078125 11.507812 0.15625 10.9375 0.25 C 10.363281 0.34375 9.796875 0.390625 9.234375 0.390625 C 7.441406 0.390625 5.992188 -0.148438 4.890625 -1.234375 C 3.796875 -2.328125 3.25 -4.164062 3.25 -6.75 L 3.25 -14.59375 L 2.953125 -14.59375 C 2.003906 -14.59375 1.328125 -14.800781 0.921875 -15.21875 C 0.515625 -15.644531 0.3125 -16.191406 0.3125 -16.859375 C 0.3125 -17.523438 0.515625 -18.070312 0.921875 -18.5 C 1.328125 -18.9375 2.003906 -19.15625 2.953125 -19.15625 L 3.25 -19.15625 Z M 3.25 -22.796875 "/></g></g></g><g fill="#ffffff" fill-opacity="1"><g transform="translate(264.533091, 189.033799)"><g><path d="M 7.65625 -2.484375 C 7.65625 -1.953125 7.578125 -1.5 7.421875 -1.125 C 7.273438 -0.757812 7.070312 -0.46875 6.8125 -0.25 C 6.5625 -0.03125 6.269531 0.128906 5.9375 0.234375 C 5.601562 0.335938 5.269531 0.390625 4.9375 0.390625 C 4.28125 0.390625 3.671875 0.179688 3.109375 -0.234375 C 2.546875 -0.660156 2.265625 -1.410156 2.265625 -2.484375 L 2.265625 -25.484375 C 2.265625 -26.554688 2.546875 -27.300781 3.109375 -27.71875 C 3.671875 -28.132812 4.28125 -28.34375 4.9375 -28.34375 C 5.269531 -28.34375 5.601562 -28.289062 5.9375 -28.1875 C 6.269531 -28.09375 6.5625 -27.9375 6.8125 -27.71875 C 7.070312 -27.5 7.273438 -27.203125 7.421875 -26.828125 C 7.578125 -26.460938 7.65625 -26.015625 7.65625 -25.484375 L 7.65625 -17.359375 C 8.40625 -18.097656 9.191406 -18.644531 10.015625 -19 C 10.847656 -19.363281 11.835938 -19.546875 12.984375 -19.546875 C 14.898438 -19.546875 16.394531 -18.957031 17.46875 -17.78125 C 18.539062 -16.601562 19.078125 -14.773438 19.078125 -12.296875 L 19.078125 -2.484375 C 19.078125 -1.953125 19 -1.5 18.84375 -1.125 C 18.695312 -0.757812 18.492188 -0.46875 18.234375 -0.25 C 17.984375 -0.03125 17.691406 0.128906 17.359375 0.234375 C 17.023438 0.335938 16.691406 0.390625 16.359375 0.390625 C 15.691406 0.390625 15.078125 0.179688 14.515625 -0.234375 C 13.953125 -0.660156 13.671875 -1.410156 13.671875 -2.484375 L 13.671875 -12.1875 C 13.671875 -13.15625 13.425781 -13.863281 12.9375 -14.3125 C 12.457031 -14.757812 11.8125 -14.984375 11 -14.984375 C 10 -14.984375 9.191406 -14.519531 8.578125 -13.59375 C 7.960938 -12.675781 7.65625 -11.132812 7.65625 -8.96875 Z M 7.65625 -2.484375 "/></g></g></g><g fill="#ffffff" fill-opacity="1"><g transform="translate(283.842713, 189.033799)"><g/></g></g><g fill="#ffffff" fill-opacity="1"><g transform="translate(293.688818, 189.033799)"><g><path d="M 7.65625 -16.203125 L 7.65625 -2.484375 C 7.65625 -1.953125 7.578125 -1.5 7.421875 -1.125 C 7.273438 -0.757812 7.070312 -0.46875 6.8125 -0.25 C 6.5625 -0.03125 6.269531 0.128906 5.9375 0.234375 C 5.601562 0.335938 5.269531 0.390625 4.9375 0.390625 C 4.28125 0.390625 3.671875 0.179688 3.109375 -0.234375 C 2.546875 -0.660156 2.265625 -1.410156 2.265625 -2.484375 L 2.265625 -23.828125 C 2.265625 -24.972656 2.519531 -25.820312 3.03125 -26.375 C 3.539062 -26.925781 4.21875 -27.203125 5.0625 -27.203125 C 5.75 -27.203125 6.335938 -27.035156 6.828125 -26.703125 C 7.328125 -26.367188 7.875 -25.753906 8.46875 -24.859375 L 17.9375 -10.578125 L 17.9375 -24.328125 C 17.9375 -25.398438 18.210938 -26.144531 18.765625 -26.5625 C 19.328125 -26.988281 19.941406 -27.203125 20.609375 -27.203125 C 20.941406 -27.203125 21.273438 -27.148438 21.609375 -27.046875 C 21.941406 -26.941406 22.234375 -26.78125 22.484375 -26.5625 C 22.742188 -26.351562 22.945312 -26.0625 23.09375 -25.6875 C 23.25 -25.320312 23.328125 -24.867188 23.328125 -24.328125 L 23.328125 -2.984375 C 23.328125 -1.835938 23.070312 -0.988281 22.5625 -0.4375 C 22.050781 0.113281 21.375 0.390625 20.53125 0.390625 C 19.84375 0.390625 19.25 0.222656 18.75 -0.109375 C 18.25 -0.441406 17.707031 -1.054688 17.125 -1.953125 Z M 7.65625 -16.203125 "/></g></g></g><g fill="#ffffff" fill-opacity="1"><g transform="translate(317.25129, 189.033799)"><g><path d="M 17.78125 -6.671875 C 17.78125 -5.953125 17.796875 -5.351562 17.828125 -4.875 C 17.867188 -4.40625 17.921875 -4 17.984375 -3.65625 C 18.046875 -3.3125 18.097656 -3.003906 18.140625 -2.734375 C 18.179688 -2.472656 18.203125 -2.1875 18.203125 -1.875 C 18.203125 -1.238281 17.988281 -0.703125 17.5625 -0.265625 C 17.144531 0.171875 16.523438 0.390625 15.703125 0.390625 C 14.835938 0.390625 14.140625 0.160156 13.609375 -0.296875 C 13.085938 -0.765625 12.675781 -1.421875 12.375 -2.265625 C 11.789062 -1.441406 11.035156 -0.789062 10.109375 -0.3125 C 9.191406 0.15625 8.257812 0.390625 7.3125 0.390625 C 5.25 0.390625 3.671875 -0.140625 2.578125 -1.203125 C 1.492188 -2.265625 0.953125 -3.789062 0.953125 -5.78125 C 0.953125 -6.9375 1.160156 -7.890625 1.578125 -8.640625 C 2.003906 -9.390625 2.582031 -9.984375 3.3125 -10.421875 C 4.039062 -10.859375 4.890625 -11.160156 5.859375 -11.328125 C 6.828125 -11.492188 7.847656 -11.578125 8.921875 -11.578125 C 9.515625 -11.578125 10.101562 -11.550781 10.6875 -11.5 C 11.28125 -11.445312 11.84375 -11.378906 12.375 -11.296875 L 12.375 -12.71875 C 12.375 -13.507812 12.148438 -14.082031 11.703125 -14.4375 C 11.253906 -14.800781 10.660156 -14.984375 9.921875 -14.984375 C 9.410156 -14.984375 8.972656 -14.882812 8.609375 -14.6875 C 8.253906 -14.5 7.910156 -14.265625 7.578125 -13.984375 C 7.253906 -13.703125 6.898438 -13.453125 6.515625 -13.234375 C 6.128906 -13.015625 5.601562 -12.90625 4.9375 -12.90625 C 4.125 -12.90625 3.472656 -13.101562 2.984375 -13.5 C 2.503906 -13.894531 2.265625 -14.390625 2.265625 -14.984375 C 2.265625 -15.742188 2.484375 -16.410156 2.921875 -16.984375 C 3.367188 -17.566406 3.953125 -18.039062 4.671875 -18.40625 C 5.390625 -18.78125 6.179688 -19.0625 7.046875 -19.25 C 7.921875 -19.445312 8.789062 -19.546875 9.65625 -19.546875 C 10.726562 -19.546875 11.753906 -19.410156 12.734375 -19.140625 C 13.722656 -18.867188 14.585938 -18.457031 15.328125 -17.90625 C 16.066406 -17.363281 16.660156 -16.675781 17.109375 -15.84375 C 17.554688 -15.007812 17.78125 -14.03125 17.78125 -12.90625 Z M 10 -7.8125 C 8.90625 -7.8125 8.023438 -7.671875 7.359375 -7.390625 C 6.691406 -7.109375 6.359375 -6.5625 6.359375 -5.75 C 6.359375 -5.207031 6.539062 -4.804688 6.90625 -4.546875 C 7.28125 -4.296875 7.800781 -4.171875 8.46875 -4.171875 C 8.90625 -4.171875 9.351562 -4.238281 9.8125 -4.375 C 10.269531 -4.519531 10.6875 -4.71875 11.0625 -4.96875 C 11.445312 -5.226562 11.757812 -5.53125 12 -5.875 C 12.25 -6.21875 12.375 -6.597656 12.375 -7.015625 C 12.375 -7.265625 12.207031 -7.457031 11.875 -7.59375 C 11.539062 -7.738281 10.914062 -7.8125 10 -7.8125 Z M 10 -7.8125 "/></g></g></g><g fill="#ffffff" fill-opacity="1"><g transform="translate(335.258232, 189.033799)"><g><path d="M 2.265625 -16.671875 C 2.265625 -17.742188 2.546875 -18.488281 3.109375 -18.90625 C 3.671875 -19.332031 4.28125 -19.546875 4.9375 -19.546875 C 5.269531 -19.546875 5.601562 -19.492188 5.9375 -19.390625 C 6.269531 -19.285156 6.5625 -19.125 6.8125 -18.90625 C 7.070312 -18.6875 7.273438 -18.390625 7.421875 -18.015625 C 7.578125 -17.648438 7.65625 -17.203125 7.65625 -16.671875 C 8.195312 -17.484375 8.898438 -18.164062 9.765625 -18.71875 C 10.640625 -19.269531 11.6875 -19.546875 12.90625 -19.546875 C 13.976562 -19.546875 14.96875 -19.351562 15.875 -18.96875 C 16.78125 -18.582031 17.566406 -17.992188 18.234375 -17.203125 C 18.898438 -16.410156 19.421875 -15.40625 19.796875 -14.1875 C 20.179688 -12.976562 20.375 -11.554688 20.375 -9.921875 C 20.375 -6.453125 19.632812 -3.863281 18.15625 -2.15625 C 16.675781 -0.457031 14.6875 0.390625 12.1875 0.390625 C 11.363281 0.390625 10.566406 0.242188 9.796875 -0.046875 C 9.035156 -0.347656 8.320312 -0.832031 7.65625 -1.5 L 7.65625 5.171875 C 7.65625 5.710938 7.578125 6.164062 7.421875 6.53125 C 7.273438 6.90625 7.070312 7.195312 6.8125 7.40625 C 6.5625 7.625 6.269531 7.785156 5.9375 7.890625 C 5.601562 7.992188 5.269531 8.046875 4.9375 8.046875 C 4.28125 8.046875 3.671875 7.832031 3.109375 7.40625 C 2.546875 6.988281 2.265625 6.242188 2.265625 5.171875 Z M 7.65625 -8.5 C 7.65625 -7.914062 7.71875 -7.359375 7.84375 -6.828125 C 7.976562 -6.304688 8.1875 -5.847656 8.46875 -5.453125 C 8.75 -5.054688 9.117188 -4.742188 9.578125 -4.515625 C 10.035156 -4.285156 10.597656 -4.171875 11.265625 -4.171875 C 12.410156 -4.171875 13.316406 -4.671875 13.984375 -5.671875 C 14.648438 -6.671875 14.984375 -8.085938 14.984375 -9.921875 C 14.984375 -11.660156 14.671875 -12.9375 14.046875 -13.75 C 13.421875 -14.570312 12.609375 -14.984375 11.609375 -14.984375 C 10.484375 -14.984375 9.539062 -14.4375 8.78125 -13.34375 C 8.03125 -12.257812 7.65625 -10.644531 7.65625 -8.5 Z M 7.65625 -8.5 "/></g></g></g><g fill="#ffffff" fill-opacity="1"><g transform="translate(355.334127, 189.033799)"><g><path d="M 9.1875 -4.171875 C 9.5 -4.171875 9.800781 -4.179688 10.09375 -4.203125 C 10.382812 -4.234375 10.648438 -4.300781 10.890625 -4.40625 C 11.140625 -4.507812 11.335938 -4.65625 11.484375 -4.84375 C 11.640625 -5.039062 11.71875 -5.289062 11.71875 -5.59375 C 11.71875 -6.082031 11.472656 -6.453125 10.984375 -6.703125 C 10.503906 -6.960938 9.90625 -7.195312 9.1875 -7.40625 C 8.476562 -7.625 7.695312 -7.851562 6.84375 -8.09375 C 5.988281 -8.34375 5.203125 -8.691406 4.484375 -9.140625 C 3.765625 -9.585938 3.160156 -10.171875 2.671875 -10.890625 C 2.191406 -11.617188 1.953125 -12.585938 1.953125 -13.796875 C 1.953125 -14.835938 2.160156 -15.722656 2.578125 -16.453125 C 3.003906 -17.179688 3.570312 -17.773438 4.28125 -18.234375 C 5 -18.691406 5.820312 -19.023438 6.75 -19.234375 C 7.6875 -19.441406 8.65625 -19.546875 9.65625 -19.546875 C 10.34375 -19.546875 11.085938 -19.5 11.890625 -19.40625 C 12.703125 -19.3125 13.457031 -19.128906 14.15625 -18.859375 C 14.851562 -18.597656 15.4375 -18.226562 15.90625 -17.75 C 16.382812 -17.28125 16.625 -16.675781 16.625 -15.9375 C 16.625 -15.269531 16.40625 -14.78125 15.96875 -14.46875 C 15.539062 -14.164062 15.03125 -14.015625 14.4375 -14.015625 C 14.132812 -14.015625 13.820312 -14.066406 13.5 -14.171875 C 13.1875 -14.273438 12.832031 -14.382812 12.4375 -14.5 C 12.039062 -14.613281 11.597656 -14.722656 11.109375 -14.828125 C 10.617188 -14.929688 10.070312 -14.984375 9.46875 -14.984375 C 8.820312 -14.984375 8.304688 -14.882812 7.921875 -14.6875 C 7.546875 -14.5 7.359375 -14.203125 7.359375 -13.796875 C 7.359375 -13.378906 7.597656 -13.054688 8.078125 -12.828125 C 8.566406 -12.597656 9.164062 -12.375 9.875 -12.15625 C 10.59375 -11.945312 11.378906 -11.707031 12.234375 -11.4375 C 13.097656 -11.164062 13.882812 -10.804688 14.59375 -10.359375 C 15.3125 -9.910156 15.910156 -9.34375 16.390625 -8.65625 C 16.878906 -7.96875 17.125 -7.078125 17.125 -5.984375 C 17.125 -4.859375 16.921875 -3.890625 16.515625 -3.078125 C 16.109375 -2.273438 15.546875 -1.617188 14.828125 -1.109375 C 14.109375 -0.597656 13.265625 -0.222656 12.296875 0.015625 C 11.328125 0.265625 10.28125 0.390625 9.15625 0.390625 C 8.3125 0.390625 7.414062 0.3125 6.46875 0.15625 C 5.53125 0 4.664062 -0.25 3.875 -0.59375 C 3.082031 -0.9375 2.421875 -1.375 1.890625 -1.90625 C 1.367188 -2.445312 1.109375 -3.085938 1.109375 -3.828125 C 1.109375 -4.492188 1.320312 -4.992188 1.75 -5.328125 C 2.1875 -5.660156 2.703125 -5.828125 3.296875 -5.828125 C 3.648438 -5.828125 4.023438 -5.742188 4.421875 -5.578125 C 4.816406 -5.410156 5.253906 -5.21875 5.734375 -5 C 6.222656 -4.78125 6.753906 -4.585938 7.328125 -4.421875 C 7.910156 -4.253906 8.53125 -4.171875 9.1875 -4.171875 Z M 9.1875 -4.171875 "/></g></g></g><g fill="#b8d1c1" fill-opacity="1"><g transform="translate(17.244356, 170.337922)"><g><path d="M 0.546875 0 C 0.328125 0 0.21875 -0.0859375 0.21875 -0.265625 C 0.21875 -0.328125 0.226562 -0.382812 0.25 -0.4375 C 0.269531 -0.5 0.3125 -0.578125 0.375 -0.671875 L 1.984375 -3.078125 L 0.609375 -3.078125 C 0.484375 -3.078125 0.390625 -3.109375 0.328125 -3.171875 C 0.265625 -3.234375 0.234375 -3.3125 0.234375 -3.40625 C 0.234375 -3.5 0.265625 -3.578125 0.328125 -3.640625 C 0.390625 -3.703125 0.484375 -3.734375 0.609375 -3.734375 L 2.6875 -3.734375 C 2.914062 -3.734375 3.03125 -3.648438 3.03125 -3.484375 C 3.03125 -3.410156 3.015625 -3.34375 2.984375 -3.28125 C 2.960938 -3.226562 2.921875 -3.15625 2.859375 -3.0625 L 1.25 -0.65625 L 2.78125 -0.65625 C 2.914062 -0.65625 3.007812 -0.625 3.0625 -0.5625 C 3.125 -0.5 3.15625 -0.421875 3.15625 -0.328125 C 3.15625 -0.234375 3.125 -0.15625 3.0625 -0.09375 C 3.007812 -0.03125 2.914062 0 2.78125 0 Z M 0.546875 0 "/></g></g></g><g fill="#b8d1c1" fill-opacity="1"><g transform="translate(21.304857, 167.348012)"><g><path d="M 0.671875 0 C 0.398438 0 0.265625 -0.109375 0.265625 -0.328125 C 0.265625 -0.398438 0.28125 -0.472656 0.3125 -0.546875 C 0.34375 -0.617188 0.394531 -0.710938 0.46875 -0.828125 L 2.4375 -3.78125 L 0.75 -3.78125 C 0.59375 -3.78125 0.476562 -3.820312 0.40625 -3.90625 C 0.332031 -3.988281 0.296875 -4.085938 0.296875 -4.203125 C 0.296875 -4.316406 0.332031 -4.410156 0.40625 -4.484375 C 0.476562 -4.566406 0.59375 -4.609375 0.75 -4.609375 L 3.3125 -4.609375 C 3.582031 -4.609375 3.71875 -4.5 3.71875 -4.28125 C 3.71875 -4.195312 3.703125 -4.117188 3.671875 -4.046875 C 3.640625 -3.984375 3.585938 -3.894531 3.515625 -3.78125 L 1.546875 -0.8125 L 3.421875 -0.8125 C 3.585938 -0.8125 3.707031 -0.769531 3.78125 -0.6875 C 3.851562 -0.613281 3.890625 -0.519531 3.890625 -0.40625 C 3.890625 -0.289062 3.851562 -0.191406 3.78125 -0.109375 C 3.707031 -0.0351562 3.585938 0 3.421875 0 Z M 0.671875 0 "/></g></g></g><g fill="#b8d1c1" fill-opacity="1"><g transform="translate(26.081451, 165.650816)"><g><path d="M 0.8125 0 C 0.476562 0 0.3125 -0.128906 0.3125 -0.390625 C 0.3125 -0.484375 0.332031 -0.570312 0.375 -0.65625 C 0.414062 -0.75 0.476562 -0.867188 0.5625 -1.015625 L 2.96875 -4.609375 L 0.921875 -4.609375 C 0.722656 -4.609375 0.578125 -4.65625 0.484375 -4.75 C 0.398438 -4.84375 0.359375 -4.960938 0.359375 -5.109375 C 0.359375 -5.242188 0.398438 -5.359375 0.484375 -5.453125 C 0.578125 -5.546875 0.722656 -5.59375 0.921875 -5.59375 L 4.03125 -5.59375 C 4.363281 -5.59375 4.53125 -5.460938 4.53125 -5.203125 C 4.53125 -5.109375 4.507812 -5.015625 4.46875 -4.921875 C 4.4375 -4.835938 4.375 -4.726562 4.28125 -4.59375 L 1.875 -0.984375 L 4.171875 -0.984375 C 4.367188 -0.984375 4.507812 -0.9375 4.59375 -0.84375 C 4.6875 -0.75 4.734375 -0.632812 4.734375 -0.5 C 4.734375 -0.351562 4.6875 -0.234375 4.59375 -0.140625 C 4.507812 -0.046875 4.367188 0 4.171875 0 Z M 0.8125 0 "/></g></g></g></svg>